<svg preserveAspectRatio="none" overflow="visible" style="display: block;" width="28" height="28" viewBox="0 0 28 28" fill="none" xmlns="http://www.w3.org/2000/svg">
<g id="brightness_5">
<mask id="mask0_0_263" style="mask-type:alpha" maskUnits="userSpaceOnUse" x="0" y="0" width="28" height="28">
<rect id="Bounding box" width="28" height="28" fill="#D9D9D9"/>
</mask>
<g mask="url(#mask0_0_263)">
<path id="brightness_5_2" d="M10.8095 21.619H8.28571C7.7619 21.619 7.31349 21.4325 6.94048 21.0595C6.56746 20.6865 6.38095 20.2381 6.38095 19.7143V17.1905L4.54762 15.3333C4.37302 15.1429 4.2381 14.9325 4.14286 14.7024C4.04762 14.4722 4 14.2381 4 14C4 13.7619 4.04762 13.5278 4.14286 13.2976C4.2381 13.0675 4.37302 12.8571 4.54762 12.6667L6.38095 10.8095V8.28571C6.38095 7.7619 6.56746 7.31349 6.94048 6.94048C7.31349 6.56746 7.7619 6.38095 8.28571 6.38095H10.8095L12.6667 4.54762C12.8571 4.37302 13.0675 4.2381 13.2976 4.14286C13.5278 4.04762 13.7619 4 14 4C14.2381 4 14.4722 4.04762 14.7024 4.14286C14.9325 4.2381 15.1429 4.37302 15.3333 4.54762L17.1905 6.38095H19.7143C20.2381 6.38095 20.6865 6.56746 21.0595 6.94048C21.4325 7.31349 21.619 7.7619 21.619 8.28571V10.8095L23.4524 12.6667C23.627 12.8571 23.7619 13.0675 23.8571 13.2976C23.9524 13.5278 24 13.7619 24 14C24 14.2381 23.9524 14.4722 23.8571 14.7024C23.7619 14.9325 23.627 15.1429 23.4524 15.3333L21.619 17.1905V19.7143C21.619 20.2381 21.4325 20.6865 21.0595 21.0595C20.6865 21.4325 20.2381 21.619 19.7143 21.619H17.1905L15.3333 23.4524C15.1429 23.627 14.9325 23.7619 14.7024 23.8571C14.4722 23.9524 14.2381 24 14 24C13.7619 24 13.5278 23.9524 13.2976 23.8571C13.0675 23.7619 12.8571 23.627 12.6667 23.4524L10.8095 21.619ZM17.369 17.369C18.2976 16.4405 18.7619 15.3175 18.7619 14C18.7619 12.6825 18.2976 11.5595 17.369 10.631C16.4405 9.70238 15.3175 9.2381 14 9.2381C12.6825 9.2381 11.5595 9.70238 10.631 10.631C9.70238 11.5595 9.2381 12.6825 9.2381 14C9.2381 15.3175 9.70238 16.4405 10.631 17.369C11.5595 18.2976 12.6825 18.7619 14 18.7619C15.3175 18.7619 16.4405 18.2976 17.369 17.369ZM11.9762 16.0238C11.4206 15.4683 11.1429 14.7937 11.1429 14C11.1429 13.2063 11.4206 12.5317 11.9762 11.9762C12.5317 11.4206 13.2063 11.1429 14 11.1429C14.7937 11.1429 15.4683 11.4206 16.0238 11.9762C16.5794 12.5317 16.8571 13.2063 16.8571 14C16.8571 14.7937 16.5794 15.4683 16.0238 16.0238C15.4683 16.5794 14.7937 16.8571 14 16.8571C13.2063 16.8571 12.5317 16.5794 11.9762 16.0238ZM11.619 19.7143L14 22.0952L16.381 19.7143H19.7143V16.381L22.0952 14L19.7143 11.619V8.28571H16.381L14 5.90476L11.619 8.28571H8.28571V11.619L5.90476 14L8.28571 16.381V19.7143H11.619Z" fill="#8C8C94"/>
<circle id="Ellipse" cx="21.5" cy="6.5" r="3.25" fill="#FF6E0C" stroke="white" stroke-width="1.5"/>
</g>
</g>
</svg>
