<svg width="24" height="25" viewBox="0 0 24 25" fill="none" xmlns="http://www.w3.org/2000/svg">
<path fill-rule="evenodd" clip-rule="evenodd" d="M16.6416 6.375L7.35839 6.375L6.86939 11.625L17.1306 11.625L16.6416 6.375ZM7.35839 5.5C6.90971 5.5 6.53474 5.84369 6.49286 6.29333L6.00387 11.5433C5.95606 12.0566 6.35723 12.5 6.86939 12.5H17.1306C17.6428 12.5 18.0439 12.0566 17.9961 11.5433L17.5071 6.29333C17.4653 5.84369 17.0903 5.5 16.6416 5.5H7.35839Z" fill="#956F4C"/>
<path d="M5 12.2778C5 11.2959 5.7835 10.5 6.75 10.5H17.25C18.2165 10.5 19 11.2959 19 12.2778V16.7222C19 17.7041 18.2165 18.5 17.25 18.5H6.75C5.7835 18.5 5 17.7041 5 16.7222V12.2778Z" fill="#956F4C"/>
<path fill-rule="evenodd" clip-rule="evenodd" d="M17.25 11.5H6.75C6.26675 11.5 5.875 11.9477 5.875 12.5V17.5C5.875 18.0523 6.26675 18.5 6.75 18.5H17.25C17.7332 18.5 18.125 18.0523 18.125 17.5V12.5C18.125 11.9477 17.7332 11.5 17.25 11.5ZM6.75 10.5C5.7835 10.5 5 11.3954 5 12.5V17.5C5 18.6046 5.7835 19.5 6.75 19.5H17.25C18.2165 19.5 19 18.6046 19 17.5V12.5C19 11.3954 18.2165 10.5 17.25 10.5H6.75Z" fill="#FFCD4D"/>
<path fill-rule="evenodd" clip-rule="evenodd" d="M6.75 11.5H17.25C17.7332 11.5 18.125 11.9477 18.125 12.5V17.5C18.125 18.0523 17.7332 18.5 17.25 18.5H6.75C6.26675 18.5 5.875 18.0523 5.875 17.5V12.5C5.875 11.9477 6.26675 11.5 6.75 11.5ZM5 12.5C5 11.3954 5.7835 10.5 6.75 10.5H17.25C18.2165 10.5 19 11.3954 19 12.5V17.5C19 18.6046 18.2165 19.5 17.25 19.5H6.75C5.7835 19.5 5 18.6046 5 17.5V12.5Z" fill="#FFF0C8"/>
<path d="M3.77214 11.1838C3.90825 10.7754 4.29039 10.5 4.72082 10.5H19.2793C19.7097 10.5 20.0919 10.7754 20.228 11.1838L20.5613 12.1838C20.7772 12.8313 20.2952 13.5 19.6126 13.5H4.38749C3.70493 13.5 3.22296 12.8313 3.4388 12.1838L3.77214 11.1838Z" fill="#FFF0C8"/>
<path d="M9.20819 9.38811C9.51815 8.27224 10.5341 7.5 11.6923 7.5H12.2848C13.4429 7.5 14.4589 8.27224 14.7689 9.38811L14.9479 10.0326C15.4042 11.6754 14.1688 13.3008 12.4638 13.3008H11.5132C9.80825 13.3008 8.57283 11.6754 9.02915 10.0326L9.20819 9.38811Z" fill="#E4CAB1"/>
<path fill-rule="evenodd" clip-rule="evenodd" d="M12.0814 11.276C12.1306 11.3253 12.1759 11.3854 12.2152 11.4375C12.225 11.4506 12.2345 11.4632 12.2435 11.4749C12.2927 11.5389 12.3365 11.5891 12.3864 11.6241C12.433 11.6567 12.4872 11.6776 12.5622 11.6764C12.6406 11.6751 12.7487 11.6495 12.8994 11.5742C12.9631 11.5423 13.0405 11.5681 13.0724 11.6318C13.1042 11.6955 13.0784 11.7729 13.0147 11.8047C12.8431 11.8905 12.6961 11.9321 12.5664 11.9342C12.4332 11.9363 12.3264 11.8968 12.2386 11.8353C12.1543 11.7763 12.0906 11.699 12.0391 11.6321C12.0262 11.6153 12.0142 11.5994 12.0028 11.5843L12.0028 11.5842L12.0028 11.5842C11.9985 11.5786 11.9944 11.5731 11.9903 11.5677C11.9862 11.5731 11.982 11.5786 11.9777 11.5842L11.9777 11.5842L11.9777 11.5843C11.9663 11.5994 11.9543 11.6153 11.9414 11.6321C11.8899 11.699 11.8262 11.7763 11.7419 11.8353C11.6541 11.8968 11.5473 11.9363 11.4141 11.9342C11.2844 11.9321 11.1374 11.8905 10.9658 11.8047C10.9021 11.7729 10.8763 11.6955 10.9082 11.6318C10.94 11.5681 11.0174 11.5423 11.0811 11.5742C11.2318 11.6495 11.3399 11.6751 11.4183 11.6764C11.4933 11.6776 11.5476 11.6567 11.5941 11.6241C11.6441 11.5891 11.6878 11.5389 11.737 11.4749C11.7461 11.4632 11.7555 11.4506 11.7653 11.4376L11.7653 11.4375C11.8046 11.3854 11.8499 11.3253 11.8991 11.276C11.9495 11.2257 12.0311 11.2257 12.0814 11.276Z" fill="#C8A584"/>
<path d="M11.4052 10.8758C11.4161 10.7883 11.4905 10.7227 11.5787 10.7227H12.3979C12.4861 10.7227 12.5605 10.7883 12.5714 10.8758C12.604 11.1367 12.4006 11.3672 12.1376 11.3672H11.8389C11.576 11.3672 11.3726 11.1367 11.4052 10.8758Z" fill="#956F4C"/>
<path fill-rule="evenodd" clip-rule="evenodd" d="M10.1512 8.10542C9.85296 7.91999 9.46441 7.97732 9.23248 8.24098L8.24601 9.36238C7.84319 9.82029 7.94796 10.5303 8.46586 10.8524C9.04843 11.2146 9.81377 10.8867 9.95334 10.215L10.3131 8.4835C10.3438 8.33597 10.2791 8.18499 10.1512 8.10542ZM13.8488 8.10542C14.147 7.91999 14.5356 7.97732 14.7675 8.24098L15.754 9.36238C16.1568 9.82029 16.052 10.5303 15.5341 10.8524C14.9516 11.2146 14.1862 10.8867 14.0467 10.215L13.6869 8.4835C13.6562 8.33597 13.7209 8.18499 13.8488 8.10542Z" fill="#956F4C"/>
<path fill-rule="evenodd" clip-rule="evenodd" d="M7.80078 18.5V13.5H8.20078V18.5H7.80078ZM9.80078 18.5V13.5H10.2008V18.5H9.80078ZM11.8008 18.5V13.5H12.2008V18.5H11.8008ZM13.8008 18.5V13.5H14.2008V18.5H13.8008ZM15.8008 18.5V13.5H16.2008V18.5H15.8008Z" fill="#FFF0C8"/>
<path fill-rule="evenodd" clip-rule="evenodd" d="M5 17.2998L19 17.2998L19 17.6998L5 17.6998L5 17.2998Z" fill="#FFF0C8"/>
<path fill-rule="evenodd" clip-rule="evenodd" d="M5 14.2998L19 14.2998L19 14.6998L5 14.6998L5 14.2998Z" fill="#FFF0C8"/>
<path fill-rule="evenodd" clip-rule="evenodd" d="M5 15.7998L19 15.7998L19 16.1998L5 16.1998L5 15.7998Z" fill="#FFF0C8"/>
</svg>
