<svg width="24" height="25" viewBox="0 0 24 25" fill="none" xmlns="http://www.w3.org/2000/svg">
<path d="M7.75 20.5C6.7835 20.5 6 19.6046 6 18.5L6 6.5C6 5.39543 6.7835 4.5 7.75 4.5L18.25 4.5C19.2165 4.5 20 5.39543 20 6.5L20 18.5C20 19.6046 19.2165 20.5 18.25 20.5L7.75 20.5Z" fill="white"/>
<path d="M5 18.5C4.44772 18.5 4 18.0523 4 17.5C4 16.9477 4.44772 16.5 5 16.5L7 16.5C7.55228 16.5 8 16.9477 8 17.5C8 18.0523 7.55228 18.5 7 18.5L5 18.5Z" fill="#525252"/>
<path d="M5 8.5C4.44772 8.5 4 8.05228 4 7.5C4 6.94772 4.44772 6.5 5 6.5L7 6.5C7.55228 6.5 8 6.94772 8 7.5C8 8.05228 7.55228 8.5 7 8.5L5 8.5Z" fill="#525252"/>
<path d="M5 13.5C4.44772 13.5 4 13.0523 4 12.5C4 11.9477 4.44772 11.5 5 11.5L7 11.5C7.55228 11.5 8 11.9477 8 12.5C8 13.0523 7.55228 13.5 7 13.5L5 13.5Z" fill="#525252"/>
<path d="M15.2905 14.5058C14.771 13.3861 14.5463 13.099 14.1088 12.5691C13.8439 12.2483 13.4499 12.0586 13.0339 12.0586C12.6122 12.0586 12.2154 12.2549 11.9429 12.5766C11.4797 13.1236 11.1828 13.443 10.7447 14.4865C10.6517 14.7081 10.6405 14.9558 10.7054 15.1871C10.8601 15.7395 11.4114 16.0818 11.975 15.9756L12.1029 15.9515C12.2152 15.9303 12.3241 15.8938 12.4265 15.843L12.4978 15.8077C12.8646 15.6257 13.2984 15.6407 13.6517 15.8478L13.6609 15.8531C13.7873 15.9272 13.9267 15.9767 14.0716 15.9989L14.1493 16.0108C14.7097 16.0966 15.2405 15.7326 15.3624 15.1789C15.4121 14.9528 15.388 14.7158 15.2905 14.5058Z" fill="#E4CAB1"/>
<path d="M9.16135 12.8128C9.23749 13.3787 9.59345 13.811 10.0292 13.7508C10.7047 13.5903 10.9997 12.9921 10.6894 12.4573C10.3148 11.8115 10.0103 11.5388 9.64625 11.5258C9.28222 11.5127 9.08521 12.2469 9.16135 12.8128Z" fill="#E4CAB1"/>
<path d="M16.8387 12.8128C16.7625 13.3787 16.4066 13.811 15.9708 13.7508C15.2953 13.5903 15.0003 12.9921 15.3106 12.4573C15.6852 11.8115 15.9897 11.5388 16.3537 11.5258C16.7178 11.5127 16.9148 12.2469 16.8387 12.8128Z" fill="#E4CAB1"/>
<path d="M10.9786 10.8272C10.9496 11.4495 11.1511 11.9801 11.7149 12.0071C12.6032 12.0496 12.8087 11.5215 12.6636 10.7514C12.4912 9.83594 12.2536 9.49298 11.7405 9.54351C11.2275 9.59404 11.0075 10.2049 10.9786 10.8272Z" fill="#E4CAB1"/>
<path d="M15.123 10.8272C15.152 11.4495 14.9504 11.9801 14.3866 12.0071C13.4984 12.0496 13.2929 11.5215 13.4379 10.7514C13.6104 9.83594 13.848 9.49298 14.361 9.54351C14.8741 9.59404 15.094 10.2049 15.123 10.8272Z" fill="#E4CAB1"/>
</svg>
