<svg width="24" height="25" viewBox="0 0 24 25" fill="none" xmlns="http://www.w3.org/2000/svg">
<path fill-rule="evenodd" clip-rule="evenodd" d="M5.03544 17.5H4C3.44772 17.5 3 17.0523 3 16.5C3 15.9477 3.44772 15.5 4 15.5H5L5 13.5H4C3.44772 13.5 3 13.0523 3 12.5C3 11.9477 3.44772 11.5 4 11.5H5L5 9.5H4C3.44772 9.5 3 9.05228 3 8.5C3 7.94771 3.44772 7.5 4 7.5L5.03544 7.5C5.27806 5.80385 6.73676 4.5 8.5 4.5H17.5C19.433 4.5 21 6.067 21 8V17C21 18.933 19.433 20.5 17.5 20.5L8.5 20.5C6.73676 20.5 5.27806 19.1961 5.03544 17.5ZM7 12.4991C7 12.4994 7 12.4997 7 12.5C7 12.5003 7 12.5006 7 12.5009V16.4993L7 16.5L7 16.5007V17C7 17.8284 7.67157 18.5 8.5 18.5L17.5 18.5C18.3284 18.5 19 17.8284 19 17V8C19 7.17157 18.3284 6.5 17.5 6.5L8.5 6.5C7.67157 6.5 7 7.17157 7 8V8.49903L7 8.5L7 8.50097V12.4991Z" fill="#525252"/>
</svg>
