<svg width="24" height="25" viewBox="0 0 24 25" fill="none" xmlns="http://www.w3.org/2000/svg">
<path d="M5 7.25C5 6.2835 5.7835 5.5 6.75 5.5H17.25C18.2165 5.5 19 6.2835 19 7.25V17.75C19 18.7165 18.2165 19.5 17.25 19.5H6.75C5.7835 19.5 5 18.7165 5 17.75V7.25Z" fill="#EEE3D9"/>
<path d="M5 7C5 6.17157 5.7835 5.5 6.75 5.5H17.25C18.2165 5.5 19 6.17157 19 7V8.5H5V7Z" fill="#956F4C"/>
<path d="M7 4.5C7 3.94772 7.44772 3.5 8 3.5C8.55228 3.5 9 3.94772 9 4.5V6.5C9 7.05228 8.55228 7.5 8 7.5C7.44772 7.5 7 7.05228 7 6.5V4.5Z" fill="#525252"/>
<path d="M15 4.5C15 3.94772 15.4477 3.5 16 3.5C16.5523 3.5 17 3.94772 17 4.5V6.5C17 7.05228 16.5523 7.5 16 7.5C15.4477 7.5 15 7.05228 15 6.5V4.5Z" fill="#525252"/>
<path d="M14.1487 15.3606C13.6868 14.365 13.4869 14.1097 13.0979 13.6385C12.8624 13.3532 12.5121 13.1846 12.1421 13.1846C11.7672 13.1846 11.4143 13.3591 11.172 13.6452C10.7602 14.1315 10.4962 14.4156 10.1066 15.3434C10.0239 15.5404 10.014 15.7607 10.0716 15.9664C10.2092 16.4575 10.6994 16.762 11.2006 16.6675L11.3143 16.6461C11.4142 16.6273 11.511 16.5948 11.6021 16.5496L11.6654 16.5182C11.9916 16.3564 12.3774 16.3698 12.6915 16.5539L12.6996 16.5586C12.8121 16.6245 12.936 16.6685 13.0649 16.6882L13.134 16.6988C13.6323 16.7751 14.1042 16.4514 14.2126 15.9591C14.2568 15.758 14.2354 15.5474 14.1487 15.3606Z" fill="#C8A584"/>
<path d="M8.69768 13.8551C8.76538 14.3582 9.08189 14.7427 9.46933 14.6891C10.07 14.5464 10.3323 14.0145 10.0564 13.5389C9.7233 12.9647 9.45254 12.7223 9.12885 12.7107C8.80515 12.699 8.62997 13.3519 8.69768 13.8551Z" fill="#C8A584"/>
<path d="M15.525 13.8551C15.4573 14.3583 15.1408 14.7427 14.7533 14.6892C14.1527 14.5464 13.8904 14.0145 14.1663 13.5389C14.4994 12.9647 14.7701 12.7223 15.0938 12.7107C15.4175 12.699 15.5927 13.3519 15.525 13.8551Z" fill="#C8A584"/>
<path d="M10.315 12.0887C10.2893 12.6421 10.4685 13.1139 10.9698 13.1379C11.7596 13.1756 11.9424 12.7061 11.8134 12.0214C11.66 11.2073 11.4488 10.9024 10.9926 10.9473C10.5364 10.9922 10.3408 11.5354 10.315 12.0887Z" fill="#C8A584"/>
<path d="M13.9975 12.0887C14.0232 12.6421 13.844 13.1139 13.3427 13.1379C12.5529 13.1756 12.3701 12.7061 12.4991 12.0214C12.6525 11.2073 12.8637 10.9024 13.3199 10.9473C13.7761 10.9922 13.9717 11.5354 13.9975 12.0887Z" fill="#C8A584"/>
</svg>
