<svg width="24" height="25" viewBox="0 0 24 25" fill="none" xmlns="http://www.w3.org/2000/svg">
<g filter="url(#filter0_i_4672_168629)">
<path fill-rule="evenodd" clip-rule="evenodd" d="M15.8958 10.8994C15.8958 9.79484 16.7912 8.89941 17.8958 8.89941H18C19.1046 8.89941 20 9.79484 20 10.8994C20 11.5537 19.6858 12.1346 19.2001 12.4995C19.6858 12.8644 20 13.4453 20 14.0996C20 15.2042 19.1046 16.0996 18 16.0996H17.8958C16.7912 16.0996 15.8958 15.2042 15.8958 14.0996V14.0994H8.10421C8.10421 14.0995 8.10421 14.0997 8.10421 14.0998C8.10421 15.2044 7.20878 16.0998 6.10421 16.0998H6C4.89543 16.0998 4 15.2044 4 14.0998C4 13.4455 4.31419 12.8646 4.79993 12.4997C4.31419 12.1348 4 11.5539 4 10.8996C4 9.79504 4.89543 8.89961 6 8.89961H6.10421C7.20871 8.89961 8.1041 9.79493 8.10421 10.8994H15.8958Z" fill="#956F4C"/>
</g>
<defs>
<filter id="filter0_i_4672_168629" x="4" y="8.89941" width="16" height="7.2002" filterUnits="userSpaceOnUse" color-interpolation-filters="sRGB">
<feFlood flood-opacity="0" result="BackgroundImageFix"/>
<feBlend mode="normal" in="SourceGraphic" in2="BackgroundImageFix" result="shape"/>
<feColorMatrix in="SourceAlpha" type="matrix" values="0 0 0 0 0 0 0 0 0 0 0 0 0 0 0 0 0 0 127 0" result="hardAlpha"/>
<feOffset dx="-1"/>
<feComposite in2="hardAlpha" operator="arithmetic" k2="-1" k3="1"/>
<feColorMatrix type="matrix" values="0 0 0 0 0 0 0 0 0 0 0 0 0 0 0 0 0 0 0.15 0"/>
<feBlend mode="normal" in2="shape" result="effect1_innerShadow_4672_168629"/>
</filter>
</defs>
</svg>
