<svg width="24" height="25" viewBox="0 0 24 25" fill="none" xmlns="http://www.w3.org/2000/svg">
<path d="M3.5 8.5C3.5 7.67157 4.17157 7 5 7H19C19.8284 7 20.5 7.67157 20.5 8.5V16.5C20.5 17.3284 19.8284 18 19 18H5C4.17157 18 3.5 17.3284 3.5 16.5V8.5Z" fill="white" stroke="#EEE3D9"/>
<path fill-rule="evenodd" clip-rule="evenodd" d="M7 9C7 9.27614 6.77614 9.5 6.5 9.5C6.22386 9.5 6 9.27614 6 9V6.5H7L7 9Z" fill="#EE7821"/>
<rect x="10" y="10.5" width="8" height="1" fill="#E9E9E9"/>
<rect x="12" y="12.5" width="6" height="1" fill="#E9E9E9"/>
<rect x="12" y="14.5" width="6" height="1" fill="#E9E9E9"/>
<path d="M6.0778 12.8676C6.30232 12.0594 7.03823 11.5 7.87708 11.5H8.30626C9.14511 11.5 9.88102 12.0594 10.1055 12.8676L10.2352 13.3345C10.5657 14.5244 9.6709 15.7017 8.43594 15.7017H7.7474C6.51244 15.7017 5.61759 14.5244 5.94812 13.3345L6.0778 12.8676Z" fill="#E4CAB1"/>
<path fill-rule="evenodd" clip-rule="evenodd" d="M8.16047 14.2344C8.19612 14.27 8.22894 14.3136 8.25736 14.3514L8.25737 14.3514C8.26449 14.3608 8.27133 14.3699 8.27787 14.3784C8.31353 14.4248 8.34522 14.4612 8.38142 14.4865C8.4151 14.5101 8.45441 14.5252 8.50873 14.5244C8.5655 14.5234 8.64384 14.5049 8.75297 14.4503C8.79909 14.4273 8.85518 14.4459 8.87824 14.4921C8.9013 14.5382 8.8826 14.5943 8.83648 14.6173C8.71218 14.6795 8.60573 14.7096 8.51174 14.7111C8.41531 14.7126 8.3379 14.684 8.27433 14.6395C8.21327 14.5968 8.16714 14.5407 8.12986 14.4923C8.12049 14.4801 8.11178 14.4686 8.10353 14.4576L8.10352 14.4576L8.10352 14.4576C8.10044 14.4535 8.09742 14.4495 8.09445 14.4456C8.09148 14.4495 8.08846 14.4535 8.08537 14.4576L8.08537 14.4576L8.08537 14.4576C8.07711 14.4686 8.06841 14.4801 8.05904 14.4923C8.02175 14.5407 7.97563 14.5968 7.91457 14.6395C7.85099 14.684 7.77358 14.7126 7.67715 14.7111C7.58317 14.7096 7.47671 14.6795 7.35242 14.6173C7.30629 14.5943 7.2876 14.5382 7.31066 14.4921C7.33372 14.4459 7.38981 14.4273 7.43593 14.4503C7.54506 14.5049 7.6234 14.5234 7.68016 14.5244C7.73449 14.5252 7.77379 14.5101 7.80748 14.4865C7.84368 14.4612 7.87536 14.4248 7.91102 14.3784C7.91757 14.3699 7.92441 14.3608 7.93153 14.3514L7.93153 14.3514C7.95996 14.3136 7.99278 14.27 8.02843 14.2344C8.06489 14.1979 8.12401 14.1979 8.16047 14.2344Z" fill="#C8A584"/>
<path d="M7.66949 13.9449C7.67741 13.8815 7.73129 13.834 7.79516 13.834H8.38854C8.45241 13.834 8.50629 13.8815 8.51421 13.9449C8.53784 14.1339 8.39048 14.3008 8.20002 14.3008H7.98368C7.79322 14.3008 7.64587 14.1339 7.66949 13.9449Z" fill="#956F4C"/>
<path fill-rule="evenodd" clip-rule="evenodd" d="M6.76127 11.9388C6.54528 11.8045 6.26384 11.846 6.09584 12.037L5.38132 12.8493C5.08955 13.181 5.16543 13.6952 5.54056 13.9285C5.96253 14.1909 6.51688 13.9534 6.61798 13.4669L6.8786 12.2127C6.9008 12.1058 6.85395 11.9965 6.76127 11.9388ZM9.4396 11.9388C9.65559 11.8045 9.93703 11.846 10.105 12.037L10.8195 12.8493C11.1113 13.181 11.0354 13.6952 10.6603 13.9285C10.2383 14.1909 9.68398 13.9534 9.58288 13.4669L9.32226 12.2127C9.30006 12.1058 9.34691 11.9965 9.4396 11.9388Z" fill="#956F4C"/>
</svg>
