<svg width="16" height="17" viewBox="0 0 16 17" fill="none" xmlns="http://www.w3.org/2000/svg">
<rect y="0.9375" width="16" height="16" rx="8" fill="#956F4C"/>
<path d="M3.33203 6.1059C3.33203 5.46169 3.85427 4.93945 4.49848 4.93945H11.4972C12.1414 4.93945 12.6636 5.46169 12.6636 6.1059V13.1046C12.6636 13.7488 12.1414 14.271 11.4972 14.271H4.49848C3.85427 14.271 3.33203 13.7488 3.33203 13.1046V6.1059Z" fill="white"/>
<path d="M3.33203 6.1059C3.33203 5.46169 3.85427 4.93945 4.49848 4.93945H11.4972C12.1414 4.93945 12.6636 5.46169 12.6636 6.1059V7.27235H3.33203V6.1059Z" fill="#FFCD4D"/>
<path d="M4.5 4.35666C4.5 4.03456 4.76112 3.77344 5.08322 3.77344C5.40533 3.77344 5.66645 4.03456 5.66645 4.35666V5.52311C5.66645 5.84521 5.40533 6.10633 5.08322 6.10633C4.76112 6.10633 4.5 5.84521 4.5 5.52311V4.35666Z" fill="#525252"/>
<path d="M4.5 9.02268C4.5 8.70057 4.76112 8.43945 5.08322 8.43945H8.58257C8.90467 8.43945 9.16579 8.70057 9.16579 9.02268C9.16579 9.34478 8.90467 9.6059 8.58257 9.6059H5.08322C4.76112 9.6059 4.5 9.34478 4.5 9.02268Z" fill="#E4CAB1"/>
<path d="M4.5 11.3547C4.5 11.0326 4.76112 10.7715 5.08322 10.7715H10.9155C11.2376 10.7715 11.4987 11.0326 11.4987 11.3547C11.4987 11.6768 11.2376 11.9379 10.9155 11.9379H5.08322C4.76112 11.9379 4.5 11.6768 4.5 11.3547Z" fill="#E4CAB1"/>
<path d="M10.332 4.35666C10.332 4.03456 10.5931 3.77344 10.9153 3.77344C11.2374 3.77344 11.4985 4.03456 11.4985 4.35666V5.52311C11.4985 5.84521 11.2374 6.10633 10.9153 6.10633C10.5931 6.10633 10.332 5.84521 10.332 5.52311V4.35666Z" fill="#525252"/>
</svg>
