<svg width="24" height="25" viewBox="0 0 24 25" fill="none" xmlns="http://www.w3.org/2000/svg">
<path fill-rule="evenodd" clip-rule="evenodd" d="M15 14.5C17.7614 14.5 20 12.2614 20 9.5C20 6.73858 17.7614 4.5 15 4.5C12.2386 4.5 10 6.73858 10 9.5C10 10.4287 10.2532 11.2983 10.6944 12.0435L10.4256 13.0465C10.2264 13.79 10.9068 14.4705 11.6503 14.2712L12.7632 13.973C13.4363 14.3102 14.196 14.5 15 14.5Z" fill="#E4CAB1"/>
<path fill-rule="evenodd" clip-rule="evenodd" d="M3.5407 7.79957C3.59632 7.777 3.65555 7.76041 3.71776 7.75075L5.27064 7.5095C5.67306 7.44698 6.05689 7.69916 6.15347 8.08954L6.83917 10.8611C6.91911 11.1842 6.78048 11.5215 6.49502 11.6984L5.19983 12.5014C5.48199 13.4173 5.87173 14.3571 6.39465 15.2482C7.18111 16.5884 8.26408 17.8141 9.74253 18.6913C9.78543 18.5784 9.85643 18.473 9.95658 18.3854L11.1921 17.3047C11.4444 17.084 11.8115 17.0474 12.1034 17.2137L14.6082 18.6401C14.961 18.841 15.0988 19.2752 14.9251 19.6386L14.2549 21.0413C14.1937 21.1693 14.1019 21.2726 13.9925 21.3472C13.8371 21.4612 13.639 21.519 13.4316 21.4944C9.22712 20.9968 6.59487 18.674 5.03881 16.0223C3.4996 13.3994 3 10.4429 3 8.53443C3 8.19124 3.22684 7.90031 3.5407 7.79957Z" fill="#956F4C"/>
<path d="M16.7187 10.7572C16.3289 9.91703 16.1602 9.70161 15.8319 9.30396C15.6332 9.06322 15.3375 8.9209 15.0253 8.9209C14.7089 8.9209 14.4112 9.06817 14.2067 9.30963C13.8591 9.72005 13.6364 9.95976 13.3076 10.7428C13.2378 10.909 13.2294 11.0949 13.2781 11.2685C13.3942 11.6829 13.8079 11.9398 14.2308 11.8601L14.3268 11.8421C14.4111 11.8262 14.4928 11.7988 14.5696 11.7607L14.6231 11.7341C14.8983 11.5976 15.2239 11.6089 15.489 11.7642L15.4958 11.7682C15.5907 11.8239 15.6953 11.861 15.804 11.8776L15.8624 11.8865C16.2829 11.9509 16.6811 11.6778 16.7726 11.2623C16.81 11.0926 16.7918 10.9148 16.7187 10.7572Z" fill="#956F4C"/>
<path d="M12.1224 9.48634C12.1795 9.91098 12.4467 10.2354 12.7736 10.1902C13.2805 10.0698 13.5019 9.62093 13.269 9.21956C12.9879 8.73497 12.7594 8.5304 12.4863 8.5206C12.2131 8.51079 12.0653 9.06171 12.1224 9.48634Z" fill="#956F4C"/>
<path d="M17.8776 9.48635C17.8205 9.91099 17.5534 10.2354 17.2264 10.1902C16.7195 10.0698 16.4982 9.62093 16.731 9.21957C17.0121 8.73498 17.2406 8.53041 17.5137 8.5206C17.7869 8.5108 17.9347 9.06172 17.8776 9.48635Z" fill="#956F4C"/>
<path d="M13.4832 7.99611C13.4615 8.46308 13.6127 8.86125 14.0358 8.88148C14.7023 8.91334 14.8565 8.51714 14.7477 7.93926C14.6183 7.2523 14.44 6.99494 14.055 7.03286C13.67 7.07078 13.505 7.52914 13.4832 7.99611Z" fill="#956F4C"/>
<path d="M16.591 7.99611C16.6127 8.46308 16.4615 8.86125 16.0384 8.88148C15.3719 8.91334 15.2177 8.51714 15.3266 7.93926C15.456 7.2523 15.6342 6.99494 16.0192 7.03286C16.4042 7.07078 16.5692 7.52914 16.591 7.99611Z" fill="#956F4C"/>
</svg>
