<svg width="24" height="25" viewBox="0 0 24 25" fill="none" xmlns="http://www.w3.org/2000/svg">
<path fill-rule="evenodd" clip-rule="evenodd" d="M6.5407 5.79957C6.59632 5.777 6.65555 5.76041 6.71776 5.75075L8.27064 5.5095C8.67306 5.44698 9.05689 5.69916 9.15347 6.08954L9.83917 8.8611C9.91911 9.18418 9.78048 9.52147 9.49502 9.69843L8.19983 10.5014C8.48199 11.4173 8.87173 12.3571 9.39465 13.2482C10.1811 14.5884 11.2641 15.8141 12.7425 16.6913C12.7854 16.5784 12.8564 16.473 12.9566 16.3854L14.1921 15.3047C14.4444 15.084 14.8115 15.0474 15.1034 15.2137L17.6082 16.6401C17.961 16.841 18.0988 17.2752 17.9251 17.6386L17.2549 19.0413C17.1937 19.1693 17.1019 19.2726 16.9925 19.3472C16.8371 19.4612 16.639 19.519 16.4316 19.4944C12.2271 18.9968 9.59487 16.674 8.03881 14.0223C6.4996 11.3994 6 8.44286 6 6.53443C6 6.19124 6.22684 5.90031 6.5407 5.79957Z" fill="#956F4C"/>
</svg>
