<svg width="24" height="25" viewBox="0 0 24 25" fill="none" xmlns="http://www.w3.org/2000/svg">
<path d="M4 8.5C4 7.94772 4.44772 7.5 5 7.5H19C19.5523 7.5 20 7.94772 20 8.5V16.5C20 17.0523 19.5523 17.5 19 17.5H5C4.44772 17.5 4 17.0523 4 16.5V8.5Z" fill="#956F4C"/>
<path d="M4 9.5H20V11.5H4V9.5Z" fill="#525252"/>
<path d="M13 16C13 16.2761 13.2239 16.5 13.5 16.5H18.5C18.7761 16.5 19 16.2761 19 16C19 15.7239 18.7761 15.5 18.5 15.5H13.5C13.2239 15.5 13 15.7239 13 16Z" fill="#EEE3D9"/>
<path d="M5 15.5C5 16.0523 5.44772 16.5 6 16.5H10C10.5523 16.5 11 16.0523 11 15.5V13.5C11 12.9477 10.5523 12.5 10 12.5H6C5.44772 12.5 5 12.9477 5 13.5V15.5Z" fill="#FFCD4D"/>
<path fill-rule="evenodd" clip-rule="evenodd" d="M6.89844 16.5V12.5H7.09844V16.5H6.89844Z" fill="#F6BA1E"/>
<path fill-rule="evenodd" clip-rule="evenodd" d="M8.89844 16.5V12.5H9.09844V16.5H8.89844Z" fill="#F6BA1E"/>
<path fill-rule="evenodd" clip-rule="evenodd" d="M9 13.4004H11V13.6004H9V13.4004Z" fill="#F6BA1E"/>
<path fill-rule="evenodd" clip-rule="evenodd" d="M5 13.4004H7V13.6004H5V13.4004Z" fill="#F6BA1E"/>
<path fill-rule="evenodd" clip-rule="evenodd" d="M5 15.4004H7V15.6004H5V15.4004Z" fill="#F6BA1E"/>
<path fill-rule="evenodd" clip-rule="evenodd" d="M9 15.4004H11V15.6004H9V15.4004Z" fill="#F6BA1E"/>
</svg>
