<svg width="24" height="25" viewBox="0 0 24 25" fill="none" xmlns="http://www.w3.org/2000/svg">
<path fill-rule="evenodd" clip-rule="evenodd" d="M6.29513 14.5954C5.41283 13.7347 4.89062 12.6676 4.89062 11.5118C4.89062 8.65812 8.07438 6.34473 12.0017 6.34473C15.9291 6.34473 19.1128 8.65812 19.1128 11.5118C19.1128 13.9984 16.6956 16.0748 13.4754 16.5679C13.0556 16.6321 12.6222 16.6695 12.1787 16.6774C12.1199 16.6784 12.0609 16.6789 12.0017 16.6789C11.7078 16.6789 11.418 16.666 11.1333 16.6408C10.9225 16.6221 10.7145 16.5968 10.5098 16.565L7.72189 18.5682C7.40055 18.7991 6.97489 18.4731 7.11404 18.1027L7.98751 15.7775C7.33751 15.4539 6.76521 15.054 6.29513 14.5954ZM5.54494 16.5923C4.01111 15.3859 2.89062 13.6226 2.89062 11.5118C2.89062 9.28667 4.13581 7.44778 5.79776 6.24017C7.46176 5.03107 9.66166 4.34473 12.0017 4.34473C14.3418 4.34473 16.5417 5.03107 18.2057 6.24017C19.8677 7.44778 21.1128 9.28667 21.1128 11.5118C21.1128 13.737 19.8677 15.5759 18.2057 16.7835C16.5417 17.9926 14.3418 18.6789 12.0017 18.6789C11.681 18.6789 11.363 18.666 11.0485 18.6407L8.88889 20.1924C6.96086 21.5777 4.4069 19.6217 5.24179 17.3993L5.54494 16.5923Z" fill="#956F4C"/>
<path d="M20.8906 14.8447C20.8906 16.7777 19.3236 18.3447 17.3906 18.3447C15.4576 18.3447 13.8906 16.7777 13.8906 14.8447C13.8906 12.9117 15.4576 11.3447 17.3906 11.3447C19.3236 11.3447 20.8906 12.9117 20.8906 14.8447Z" fill="white"/>
<path fill-rule="evenodd" clip-rule="evenodd" d="M17.3895 12.5235C17.1331 12.5235 16.9252 12.7314 16.9252 12.9878L16.9252 14.3815L15.5318 14.3815C15.2753 14.3815 15.0674 14.5894 15.0674 14.8458C15.0674 15.1022 15.2753 15.3101 15.5317 15.3101L16.9251 15.3101L16.9251 16.7024C16.9251 16.9588 17.133 17.1667 17.3894 17.1667C17.6459 17.1667 17.8538 16.9588 17.8538 16.7024L17.8538 15.3101L19.2463 15.3101C19.5027 15.3101 19.7106 15.1022 19.7106 14.8457C19.7106 14.5893 19.5027 14.3814 19.2463 14.3814L17.8538 14.3814L17.8538 12.9878C17.8538 12.7314 17.6459 12.5235 17.3895 12.5235Z" fill="#956F4C"/>
</svg>
