<svg width="24" height="25" viewBox="0 0 24 25" fill="none" xmlns="http://www.w3.org/2000/svg">
<path d="M20 11.313C20 14.5234 16.4183 17.126 12 17.126C7.58172 17.126 4 14.5234 4 11.313C4 8.10257 7.58172 5.5 12 5.5C16.4183 5.5 20 8.10257 20 11.313Z" fill="#956F4C"/>
<path d="M8.71019 14.5194C8.78574 14.3183 8.99287 14.1986 9.20481 14.2337L12.1709 14.7238C12.5661 14.7891 12.6854 15.2995 12.3601 15.5332L8.04526 18.6334C7.68375 18.8931 7.20488 18.5264 7.36143 18.1097L8.71019 14.5194Z" fill="#956F4C"/>
<path d="M9.3365 11.2141C9.3365 11.8453 8.82482 12.357 8.19364 12.357C7.56246 12.357 7.05078 11.8453 7.05078 11.2141C7.05078 10.583 7.56246 10.0713 8.19364 10.0713C8.82482 10.0713 9.3365 10.583 9.3365 11.2141Z" fill="#FFF7E1"/>
<path d="M13.1451 11.2141C13.1451 11.8453 12.6334 12.357 12.0022 12.357C11.371 12.357 10.8594 11.8453 10.8594 11.2141C10.8594 10.583 11.371 10.0713 12.0022 10.0713C12.6334 10.0713 13.1451 10.583 13.1451 11.2141Z" fill="#FFF7E1"/>
<path d="M16.9537 11.2141C16.9537 11.8453 16.442 12.357 15.8108 12.357C15.1796 12.357 14.668 11.8453 14.668 11.2141C14.668 10.583 15.1796 10.0713 15.8108 10.0713C16.442 10.0713 16.9537 10.583 16.9537 11.2141Z" fill="#FFF7E1"/>
</svg>
