<svg width="20" height="21" viewBox="0 0 20 21" fill="none" xmlns="http://www.w3.org/2000/svg">
<rect y="0.5" width="20" height="20" rx="10" fill="#FFF0C8"/>
<path fill-rule="evenodd" clip-rule="evenodd" d="M11.5558 6.22624C11.0956 6.22624 10.7225 5.85314 10.7225 5.3929C10.7225 4.93267 11.0956 4.55957 11.5558 4.55957H14.8892C15.3494 4.55957 15.7225 4.93267 15.7225 5.3929V8.72624C15.7225 9.18647 15.3494 9.55957 14.8892 9.55957C14.4289 9.55957 14.0558 9.18647 14.0558 8.72624V7.43229L12.0947 9.39341C12.6246 10.187 12.9336 11.1407 12.9336 12.1666C12.9336 14.928 10.695 17.1666 7.93359 17.1666C5.17217 17.1666 2.93359 14.928 2.93359 12.1666C2.93359 9.40516 5.17217 7.16659 7.93359 7.16659C9.06722 7.16659 10.1127 7.54385 10.9514 8.17967L12.9049 6.22624L11.5558 6.22624ZM11.2669 12.1666C11.2669 14.0075 9.77454 15.4999 7.93359 15.4999C6.09264 15.4999 4.60026 14.0075 4.60026 12.1666C4.60026 10.3256 6.09264 8.83325 7.93359 8.83325C9.77454 8.83325 11.2669 10.3256 11.2669 12.1666Z" fill="#956F4C"/>
</svg>
