<svg width="20" height="21" viewBox="0 0 20 21" fill="none" xmlns="http://www.w3.org/2000/svg">
<rect y="0.5" width="20" height="20" rx="10" fill="#FFF0C8"/>
<path fill-rule="evenodd" clip-rule="evenodd" d="M10 11.3333C11.8409 11.3333 13.3333 9.84095 13.3333 8C13.3333 6.15905 11.8409 4.66667 10 4.66667C8.15905 4.66667 6.66667 6.15905 6.66667 8C6.66667 9.84095 8.15905 11.3333 10 11.3333ZM10.8333 12.9309C13.1981 12.5341 15 10.4775 15 8C15 5.23858 12.7614 3 10 3C7.23858 3 5 5.23858 5 8C5 10.4775 6.80191 12.5341 9.16667 12.9309V13.8333H7.5C7.03976 13.8333 6.66667 14.2064 6.66667 14.6667C6.66667 15.1269 7.03976 15.5 7.5 15.5H9.16667V17.6126C9.16667 18.0729 9.53976 18.446 10 18.446C10.4602 18.446 10.8333 18.0729 10.8333 17.6126V15.5H12.5C12.9602 15.5 13.3333 15.1269 13.3333 14.6667C13.3333 14.2064 12.9602 13.8333 12.5 13.8333H10.8333V12.9309Z" fill="#956F4C"/>
</svg>
