<svg width="20" height="21" viewBox="0 0 20 21" fill="none" xmlns="http://www.w3.org/2000/svg">
<rect y="0.5" width="20" height="20" rx="10" fill="#FFF0C8"/>
<path d="M3.70703 5.89017C3.70703 4.96114 4.46016 4.20801 5.38919 4.20801H14.6411C15.5701 4.20801 16.3232 4.96114 16.3232 5.89017V15.1421C16.3232 16.0711 15.5701 16.8242 14.6411 16.8242H5.38919C4.46016 16.8242 3.70703 16.0711 3.70703 15.1421V5.89017Z" fill="#956F4C"/>
<path d="M4.41016 7.77497C4.41016 7.12583 5.11432 6.72137 5.67503 7.04846L9.16977 9.08705C9.69353 9.39258 10.3412 9.39258 10.865 9.08705L14.3597 7.04846C14.9204 6.72138 15.6246 7.12583 15.6246 7.77496V14.4411C15.6246 15.3701 14.8714 16.1232 13.9424 16.1232H6.09232C5.16328 16.1232 4.41016 15.3701 4.41016 14.4411V7.77497Z" fill="#C8A584"/>
<path d="M7.50658 6.95109C7.09541 6.396 7.49166 5.60938 8.18244 5.60938H11.852C12.5428 5.60938 12.939 6.396 12.5279 6.95109L12.2164 7.37163C12.0577 7.58578 11.807 7.71208 11.5405 7.71208H8.49395C8.22745 7.71208 7.97672 7.58578 7.8181 7.37163L7.50658 6.95109Z" fill="#EEE3D9"/>
<path d="M7.56361 14.7217C7.75716 14.7217 7.91406 14.8786 7.91406 15.0721Lnan nanL7.91406 15.0721C7.91406 15.2657 7.75716 15.4226 7.56361 15.4226L5.46091 15.4226C5.26736 15.4226 5.11046 15.2657 5.11046 15.0721C5.11046 14.8786 5.26736 14.7217 5.46091 14.7217L7.56361 14.7217Z" fill="#FFF0C8"/>
<path fill-rule="evenodd" clip-rule="evenodd" d="M10.365 6.661C10.365 6.46745 10.2081 6.31055 10.0145 6.31055C9.82096 6.31055 9.66406 6.46745 9.66406 6.661V7.71235L10.365 7.71235L10.365 6.661Z" fill="#DD5435"/>
</svg>
