<svg width="18" height="19" viewBox="0 0 18 19" fill="none" xmlns="http://www.w3.org/2000/svg">
<circle cx="9" cy="9.5" r="6" fill="#956F4C"/>
<path fill-rule="evenodd" clip-rule="evenodd" d="M6.50052 7.00007C6.22438 7.27621 6.22438 7.72393 6.50052 8.00007L8.0004 9.49995L6.50007 11.0003C6.22393 11.2764 6.22393 11.7241 6.50007 12.0003C6.77621 12.2764 7.22393 12.2764 7.50007 12.0003L9.00039 10.4999L10.5005 12C10.7766 12.2762 11.2243 12.2762 11.5005 12C11.7766 11.7239 11.7766 11.2762 11.5005 11L10.0004 9.49995L11.5 8.0003C11.7762 7.72416 11.7762 7.27645 11.5 7.00031C11.2239 6.72417 10.7762 6.72417 10.5 7.00031L9.00039 8.49996L7.50051 7.00007C7.22437 6.72393 6.77666 6.72393 6.50052 7.00007Z" fill="#EEE3D9"/>
</svg>
