<svg width="18" height="19" viewBox="0 0 18 19" fill="none" xmlns="http://www.w3.org/2000/svg">
<circle cx="9" cy="9.5" r="6" fill="#956F4C"/>
<path fill-rule="evenodd" clip-rule="evenodd" d="M5.49609 9.49976C5.49609 9.11264 5.80991 8.79883 6.19702 8.79883C6.58413 8.79883 6.89795 9.11264 6.89795 9.49976C6.89795 9.88687 6.58413 10.2007 6.19702 10.2007C5.80991 10.2007 5.49609 9.88687 5.49609 9.49976ZM8.2998 9.49976C8.2998 9.11264 8.61362 8.79883 9.00073 8.79883C9.38784 8.79883 9.70166 9.11264 9.70166 9.49976C9.70166 9.88687 9.38784 10.2007 9.00073 10.2007C8.61362 10.2007 8.2998 9.88687 8.2998 9.49976ZM11.8044 8.79883C11.4173 8.79883 11.1035 9.11264 11.1035 9.49976C11.1035 9.88687 11.4173 10.2007 11.8044 10.2007C12.1916 10.2007 12.5054 9.88687 12.5054 9.49976C12.5054 9.11264 12.1916 8.79883 11.8044 8.79883Z" fill="#EEE3D9"/>
</svg>
