<svg width="18" height="19" viewBox="0 0 18 19" fill="none" xmlns="http://www.w3.org/2000/svg">
<circle cx="9" cy="9.5" r="6" fill="#956F4C"/>
<path d="M11.1476 11.1954C10.6604 10.1453 10.4497 9.87611 10.0393 9.37913C9.79092 9.07826 9.42146 8.90039 9.03129 8.90039C8.63585 8.90039 8.26368 9.08445 8.00812 9.38623C7.57375 9.89915 7.29536 10.1987 6.8845 11.1773C6.79727 11.3851 6.78679 11.6174 6.84758 11.8344C6.99268 12.3524 7.5097 12.6734 8.0383 12.5738L8.15822 12.5512C8.26358 12.5314 8.3657 12.4971 8.46173 12.4495L8.52852 12.4163C8.87254 12.2456 9.27941 12.2598 9.61075 12.4539L9.6193 12.459C9.7379 12.5285 9.86861 12.5748 10.0045 12.5956L10.0774 12.6068C10.6029 12.6873 11.1007 12.3459 11.215 11.8267C11.2617 11.6146 11.239 11.3924 11.1476 11.1954Z" fill="#E4E4E4"/>
<path d="M5.40032 9.60794C5.47172 10.1386 5.80555 10.5441 6.21417 10.4877C6.84769 10.3371 7.12432 9.77615 6.83335 9.27453C6.48203 8.66889 6.19646 8.41323 5.85507 8.40097C5.51368 8.38871 5.32891 9.07724 5.40032 9.60794Z" fill="#E4E4E4"/>
<path d="M12.5997 9.60796C12.5283 10.1387 12.1945 10.5441 11.7858 10.4877C11.1523 10.3371 10.8757 9.77615 11.1667 9.27453C11.518 8.66889 11.8035 8.41323 12.1449 8.40098C12.4863 8.38872 12.6711 9.07725 12.5997 9.60796Z" fill="#E4E4E4"/>
<path d="M7.10238 7.74494C7.0752 8.32855 7.26423 8.82617 7.79296 8.85145C8.62595 8.89128 8.8187 8.39611 8.68265 7.67389C8.52092 6.81533 8.29813 6.49369 7.81697 6.54108C7.3358 6.58847 7.12956 7.16133 7.10238 7.74494Z" fill="#E4E4E4"/>
<path d="M10.9914 7.74494C11.0186 8.32855 10.8295 8.82617 10.3008 8.85145C9.4678 8.89128 9.27505 8.39611 9.4111 7.67389C9.57283 6.81533 9.79562 6.49369 10.2768 6.54108C10.7579 6.58847 10.9642 7.16133 10.9914 7.74494Z" fill="#E4E4E4"/>
</svg>
