<svg width="24" height="25" viewBox="0 0 24 25" fill="none" xmlns="http://www.w3.org/2000/svg">
<path d="M17.7472 17.0349C17.9081 17.1958 17.9986 17.4141 17.9986 17.6417C17.9986 17.8694 17.9081 18.0877 17.7472 18.2486C17.5862 18.4096 17.3679 18.5 17.1403 18.5C16.9126 18.5 16.6943 18.4096 16.5333 18.2486L12 13.7141L7.46523 18.2472C7.30427 18.4081 7.08595 18.4986 6.85831 18.4986C6.63068 18.4986 6.41236 18.4081 6.25139 18.2472C6.09043 18.0862 6 17.8679 6 17.6403C6 17.4127 6.09043 17.1944 6.25139 17.0334L10.7862 12.5004L6.25282 7.96586C6.09186 7.80491 6.00143 7.5866 6.00143 7.35898C6.00143 7.13135 6.09186 6.91305 6.25282 6.75209C6.41379 6.59114 6.6321 6.50071 6.85974 6.50071C7.08738 6.50071 7.3057 6.59114 7.46666 6.75209L12 11.2866L16.5348 6.75138C16.6957 6.59042 16.914 6.5 17.1417 6.5C17.3693 6.5 17.5876 6.59042 17.7486 6.75138C17.9096 6.91234 18 7.13064 18 7.35826C18 7.58589 17.9096 7.80419 17.7486 7.96515L13.2138 12.5004L17.7472 17.0349Z" fill="#292929" stroke="#292929"/>
</svg>
