<svg width="24" height="25" viewBox="0 0 24 25" fill="none" xmlns="http://www.w3.org/2000/svg">
<path d="M17 4C17.8284 4 18.5 4.67157 18.5 5.5L18.5 19.5C18.5 20.3284 17.8284 21 17 21L7 21C6.17157 21 5.5 20.3284 5.5 19.5L5.5 5.5C5.5 4.67157 6.17157 4 7 4L17 4Z" fill="white" stroke="#E4CAB1"/>
<rect x="7.03906" y="7.10352" width="8" height="1" fill="#E9E9E9"/>
<rect x="7.03906" y="9.10352" width="6" height="1" fill="#E9E9E9"/>
<path d="M16 12.5C16.5523 12.5 17 12.9477 17 13.5L17 17.5C17 18.0523 16.5523 18.5 16 18.5L8 18.5C7.44772 18.5 7 18.0523 7 17.5L7 13.5C7 12.9477 7.44772 12.5 8 12.5L16 12.5Z" fill="#E4CAB1"/>
</svg>
