<svg width="24" height="25" viewBox="0 0 24 25" fill="none" xmlns="http://www.w3.org/2000/svg">
<circle cx="12" cy="12.5" r="7.73528" transform="rotate(-45 12 12.5)" fill="#F6F1ED" stroke="#956F4C" stroke-width="1.5"/>
<path d="M14.8622 14.7612C14.2126 13.3611 13.9316 13.0021 13.3845 12.3395C13.0533 11.9383 12.5606 11.7012 12.0404 11.7012C11.5132 11.7012 11.0169 11.9466 10.6762 12.349C10.097 13.0329 9.72585 13.4323 9.17803 14.7371C9.06172 15.0141 9.04775 15.3238 9.1288 15.6132C9.32228 16.3038 10.0116 16.7319 10.7164 16.5991L10.8763 16.5689C11.0168 16.5425 11.153 16.4968 11.281 16.4333L11.3701 16.3891C11.8287 16.1615 12.3712 16.1803 12.813 16.4392L12.8244 16.4459C12.9826 16.5386 13.1568 16.6004 13.338 16.6282L13.4352 16.6431C14.136 16.7503 14.7996 16.2952 14.952 15.6029C15.0143 15.3201 14.9841 15.0238 14.8622 14.7612Z" fill="#C8A584"/>
<path d="M7.20303 12.6443C7.29824 13.3519 7.74334 13.8924 8.28817 13.8172C9.13285 13.6165 9.5017 12.8685 9.11373 12.1997C8.64531 11.3922 8.26456 11.0513 7.80936 11.0349C7.35417 11.0186 7.10782 11.9366 7.20303 12.6443Z" fill="#C8A584"/>
<path d="M16.797 12.6443C16.7018 13.3519 16.2567 13.8925 15.7119 13.8172C14.8672 13.6165 14.4983 12.8685 14.8863 12.1997C15.3547 11.3922 15.7354 11.0513 16.1906 11.035C16.6458 11.0186 16.8922 11.9367 16.797 12.6443Z" fill="#C8A584"/>
<path d="M9.46853 10.1602C9.43229 10.9384 9.68433 11.6019 10.3893 11.6356C11.5 11.6887 11.757 11.0285 11.5756 10.0655C11.3599 8.92076 11.0629 8.49192 10.4213 8.5551C9.77977 8.61828 9.50478 9.3821 9.46853 10.1602Z" fill="#C8A584"/>
<path d="M14.6565 10.1602C14.6927 10.9384 14.4407 11.6019 13.7357 11.6356C12.625 11.6887 12.368 11.0285 12.5494 10.0655C12.7651 8.92076 13.0621 8.49192 13.7037 8.5551C14.3452 8.61828 14.6202 9.3821 14.6565 10.1602Z" fill="#C8A584"/>
<path d="M6.66406 7.16602L17.9974 18.4993" stroke="#956F4C" stroke-width="1.5"/>
</svg>
