<svg width="24" height="25" viewBox="0 0 24 25" fill="none" xmlns="http://www.w3.org/2000/svg">
<path d="M4 6.38235C4 5.34276 4.89543 4.5 6 4.5H18C19.1046 4.5 20 5.34276 20 6.38235V18.6176C20 19.6572 19.1046 20.5 18 20.5H6C4.89543 20.5 4 19.6572 4 18.6176V6.38235Z" fill="#956F4C"/>
<path d="M7 4.5H17C17 5.60457 16.1046 6.5 15 6.5H9C7.89543 6.5 7 5.60457 7 4.5Z" fill="#525252"/>
<path d="M10 5C10 4.17157 10.6716 3.5 11.5 3.5H12.5C13.3284 3.5 14 4.17157 14 5C14 5.82843 13.3284 6.5 12.5 6.5H11.5C10.6716 6.5 10 5.82843 10 5Z" fill="#525252"/>
<path d="M6 10.2635C6 9.25934 6.89543 8.44531 8 8.44531H16C17.1046 8.44531 18 9.25934 18 10.2635V16.6271C18 17.6313 17.1046 18.4453 16 18.4453H8C6.89543 18.4453 6 17.6313 6 16.6271V10.2635Z" fill="#EEE3D9"/>
<path fill-rule="evenodd" clip-rule="evenodd" d="M14.8829 11.6533C14.6849 11.4554 14.364 11.4554 14.1661 11.6533L11.6575 14.1618L9.86525 12.3696C9.66731 12.1716 9.34639 12.1716 9.14845 12.3696C8.95052 12.5675 8.95052 12.8884 9.14845 13.0863L11.2849 15.2228C11.2894 15.2277 11.2941 15.2325 11.2989 15.2373C11.4968 15.4353 11.8177 15.4353 12.0157 15.2373L14.8829 12.3701C15.0808 12.1722 15.0808 11.8513 14.8829 11.6533Z" fill="#C8A584"/>
</svg>
