<svg width="16" height="17" viewBox="0 0 16 17" fill="none" xmlns="http://www.w3.org/2000/svg">
<path d="M2.66797 4.93783C2.66797 4.20145 3.26492 3.60449 4.0013 3.60449H12.0013C12.7377 3.60449 13.3346 4.20145 13.3346 4.93783V12.9378C13.3346 13.6742 12.7377 14.2712 12.0013 14.2712H4.0013C3.26492 14.2712 2.66797 13.6742 2.66797 12.9378V4.93783Z" fill="white"/>
<path fill-rule="evenodd" clip-rule="evenodd" d="M4 2.9375H12C13.1046 2.9375 14 3.83293 14 4.9375V12.9375C14 14.0421 13.1046 14.9375 12 14.9375H4C2.89543 14.9375 2 14.0421 2 12.9375V4.9375C2 3.83293 2.89543 2.9375 4 2.9375ZM4 3.60417C3.26362 3.60417 2.66667 4.20112 2.66667 4.9375V12.9375C2.66667 13.6739 3.26362 14.2708 4 14.2708H12C12.7364 14.2708 13.3333 13.6739 13.3333 12.9375V4.9375C13.3333 4.20112 12.7364 3.60417 12 3.60417H4Z" fill="#EEE3D9"/>
<path d="M6.28255 12.533C6.09846 12.8519 5.69073 12.9611 5.37187 12.777L4.21717 12.1104C3.89831 11.9263 3.78906 11.5185 3.97315 11.1997L6.97315 6.00352C7.15725 5.68465 7.56497 5.5754 7.88383 5.7595L9.03854 6.42617C9.3574 6.61026 9.46665 7.01799 9.28255 7.33685L6.28255 12.533Z" fill="#956F4C"/>
<path d="M8.94922 7.91309L6.63982 6.57975L7.30648 5.42505C7.67467 4.78733 8.49013 4.56883 9.12785 4.93702C9.76557 5.30521 9.98408 6.12066 9.61589 6.75839L8.94922 7.91309Z" fill="#C8A584"/>
<path d="M7.94922 9.64551L5.63982 8.31217L6.30648 7.15747L8.61589 8.49081L7.94922 9.64551Z" fill="#FFF0C8"/>
<path d="M4.38594 13.2323L5.92969 12.8245L3.89721 11.6511L4.38594 13.2323Z" fill="#956F4C"/>
<path d="M12 12.2705L12 12.9372L8 12.9372L8 12.2705L12 12.2705Z" fill="#858585"/>
</svg>
