<svg width="24" height="25" viewBox="0 0 24 25" fill="none" xmlns="http://www.w3.org/2000/svg">
<path fill-rule="evenodd" clip-rule="evenodd" d="M18.9948 19.4849L19 19.8333C18.9888 20.2047 18.6845 20.5 18.3129 20.5H5.68705C5.31549 20.5 5.01119 20.2047 5 19.8333L5.00525 19.4849C5.01348 18.9386 5.45872 18.5 6.00513 18.5H17.9949C18.5413 18.5 18.9865 18.9386 18.9948 19.4849Z" fill="#292929"/>
<mask id="path-2-inside-1_4672_169408" fill="white">
<path fill-rule="evenodd" clip-rule="evenodd" d="M11.6999 7.94975L11.6996 7.94956L12.7129 6.19437C13.2726 5.225 14.5121 4.89287 15.4815 5.45253C16.4509 6.0122 16.783 7.25172 16.2233 8.22109L15.7319 9.07219C15.7275 9.08043 15.7229 9.08863 15.7182 9.09679L14.7051 10.8514L14.7077 10.8529L13.6943 12.6081L13.6918 12.6066L11.158 16.9952C10.9966 17.2749 10.7219 17.4484 10.4253 17.4915L8.27018 18.0607L7.59597 15.8794C7.56622 15.8109 7.54412 15.7394 7.53003 15.6661L7.52728 15.6572L7.52849 15.6579C7.48647 15.4294 7.52239 15.1854 7.64765 14.9684L11.6999 7.94975Z"/>
</mask>
<path fill-rule="evenodd" clip-rule="evenodd" d="M11.6999 7.94975L11.6996 7.94956L12.7129 6.19437C13.2726 5.225 14.5121 4.89287 15.4815 5.45253C16.4509 6.0122 16.783 7.25172 16.2233 8.22109L15.7319 9.07219C15.7275 9.08043 15.7229 9.08863 15.7182 9.09679L14.7051 10.8514L14.7077 10.8529L13.6943 12.6081L13.6918 12.6066L11.158 16.9952C10.9966 17.2749 10.7219 17.4484 10.4253 17.4915L8.27018 18.0607L7.59597 15.8794C7.56622 15.8109 7.54412 15.7394 7.53003 15.6661L7.52728 15.6572L7.52849 15.6579C7.48647 15.4294 7.52239 15.1854 7.64765 14.9684L11.6999 7.94975Z" fill="#292929"/>
<path d="M11.6996 7.94956L10.8335 7.44956L10.3333 8.31604L11.2 8.81585L11.6996 7.94956ZM11.6999 7.94975L12.5659 8.44975L13.0662 7.58327L12.1994 7.08346L11.6999 7.94975ZM12.7129 6.19437L11.8469 5.69437V5.69437L12.7129 6.19437ZM15.4815 5.45253L14.9815 6.31856V6.31856L15.4815 5.45253ZM16.2233 8.22109L15.3573 7.72109L16.2233 8.22109ZM15.7319 9.07219L14.8659 8.57219L14.8591 8.58401L14.8526 8.59601L15.7319 9.07219ZM15.7182 9.09679L16.5842 9.59679L16.5842 9.59676L15.7182 9.09679ZM14.7051 10.8514L13.8391 10.3514L13.3391 11.2175L14.2052 11.7175L14.7051 10.8514ZM14.7077 10.8529L15.5737 11.3529L16.0738 10.4868L15.2076 9.98687L14.7077 10.8529ZM13.6943 12.6081L13.1943 13.4741L14.0603 13.9742L14.5604 13.1081L13.6943 12.6081ZM13.6918 12.6066L14.1918 11.7406L13.3257 11.2406L12.8257 12.1066L13.6918 12.6066ZM11.158 16.9952L10.292 16.4952H10.292L11.158 16.9952ZM10.4253 17.4915L10.2817 16.5019L10.2252 16.5101L10.17 16.5246L10.4253 17.4915ZM8.27018 18.0607L7.31478 18.356L7.59807 19.2726L8.52556 19.0276L8.27018 18.0607ZM7.59597 15.8794L8.55137 15.5841L8.53514 15.5316L8.51325 15.4812L7.59597 15.8794ZM7.53003 15.6661L8.51203 15.4772L8.50165 15.4233L8.48543 15.3708L7.53003 15.6661ZM7.52728 15.6572L8.02708 14.7911L5.81908 13.517L6.57188 15.9525L7.52728 15.6572ZM7.52849 15.6579L7.0287 16.5241L8.90346 17.6059L8.512 15.4771L7.52849 15.6579ZM7.64765 14.9684L8.51368 15.4684H8.51368L7.64765 14.9684ZM11.2 8.81585L11.2004 8.81604L12.1994 7.08346L12.1991 7.08327L11.2 8.81585ZM11.8469 5.69437L10.8335 7.44956L12.5656 8.44956L13.579 6.69437L11.8469 5.69437ZM15.9815 4.58651C14.5338 3.7507 12.6827 4.2467 11.8469 5.69437L13.579 6.69437C13.8625 6.20329 14.4904 6.03504 14.9815 6.31856L15.9815 4.58651ZM17.0893 8.72109C17.9252 7.27343 17.4291 5.42231 15.9815 4.58651L14.9815 6.31856C15.4726 6.60208 15.6408 7.23002 15.3573 7.72109L17.0893 8.72109ZM16.598 9.57219L17.0893 8.72109L15.3573 7.72109L14.8659 8.57219L16.598 9.57219ZM16.5842 9.59676C16.5935 9.58075 16.6025 9.56462 16.6113 9.54838L14.8526 8.59601C14.8525 8.59624 14.8523 8.59652 14.8521 8.59682L16.5842 9.59676ZM15.5712 11.3514L16.5842 9.59679L14.8522 8.59679L13.8391 10.3514L15.5712 11.3514ZM15.2076 9.98687L15.2051 9.98539L14.2052 11.7175L14.2078 11.719L15.2076 9.98687ZM14.5604 13.1081L15.5737 11.3529L13.8417 10.3529L12.8283 12.1081L14.5604 13.1081ZM13.1918 13.4727L13.1943 13.4741L14.1943 11.7421L14.1918 11.7406L13.1918 13.4727ZM12.0241 17.4952L14.5578 13.1066L12.8257 12.1066L10.292 16.4952L12.0241 17.4952ZM10.569 18.4811C11.1556 18.396 11.703 18.0513 12.0241 17.4952L10.292 16.4952C10.2908 16.4974 10.2899 16.4982 10.2897 16.4984C10.2895 16.4987 10.2892 16.499 10.2886 16.4994C10.2872 16.5003 10.2847 16.5014 10.2817 16.5019L10.569 18.4811ZM8.52556 19.0276L10.6807 18.4583L10.17 16.5246L8.01481 17.0939L8.52556 19.0276ZM6.64057 16.1747L7.31478 18.356L9.22559 17.7654L8.55137 15.5841L6.64057 16.1747ZM6.54804 15.855C6.57593 16.0001 6.61971 16.1418 6.67868 16.2777L8.51325 15.4812C8.51274 15.48 8.5123 15.4786 8.51203 15.4772L6.54804 15.855ZM6.57188 15.9525L6.57463 15.9614L8.48543 15.3708L8.48269 15.3619L6.57188 15.9525ZM8.02828 14.7918L8.02708 14.7911L7.02749 16.5234L7.0287 16.5241L8.02828 14.7918ZM6.78163 14.4684C6.53315 14.8988 6.46161 15.3854 6.54498 15.8388L8.512 15.4771C8.51159 15.4748 8.51172 15.4734 8.51182 15.4727C8.51184 15.4726 8.51194 15.4715 8.51368 15.4684L6.78163 14.4684ZM10.8339 7.44975L6.78163 14.4684L8.51368 15.4684L12.5659 8.44975L10.8339 7.44975Z" fill="#292929" mask="url(#path-2-inside-1_4672_169408)"/>
</svg>
