<svg width="24" height="25" viewBox="0 0 24 25" fill="none" xmlns="http://www.w3.org/2000/svg">
<path d="M5 7.25C5 6.2835 5.7835 5.5 6.75 5.5H17.25C18.2165 5.5 19 6.2835 19 7.25V17.75C19 18.7165 18.2165 19.5 17.25 19.5H6.75C5.7835 19.5 5 18.7165 5 17.75V7.25Z" fill="#EEE3D9"/>
<path d="M5 7C5 6.17157 5.7835 5.5 6.75 5.5H17.25C18.2165 5.5 19 6.17157 19 7V8.5H5V7Z" fill="#956F4C"/>
<path d="M7 4.5C7 3.94772 7.44772 3.5 8 3.5C8.55228 3.5 9 3.94772 9 4.5V6.5C9 7.05228 8.55228 7.5 8 7.5C7.44772 7.5 7 7.05228 7 6.5V4.5Z" fill="#525252"/>
<path d="M15 4.5C15 3.94772 15.4477 3.5 16 3.5C16.5523 3.5 17 3.94772 17 4.5V6.5C17 7.05228 16.5523 7.5 16 7.5C15.4477 7.5 15 7.05228 15 6.5V4.5Z" fill="#525252"/>
<path fill-rule="evenodd" clip-rule="evenodd" d="M11.9987 10.1904C11.6305 10.1904 11.332 10.4889 11.332 10.8571V13.5238C11.332 13.892 11.6305 14.1904 11.9987 14.1904C12.3669 14.1904 12.6654 13.892 12.6654 13.5238V10.8571C12.6654 10.4889 12.3669 10.1904 11.9987 10.1904ZM12.0013 15.5947C11.6748 15.5947 11.4102 15.8594 11.4102 16.1858C11.4102 16.5123 11.6748 16.7769 12.0013 16.7769C12.3277 16.7769 12.5924 16.5123 12.5924 16.1858C12.5924 15.8594 12.3277 15.5947 12.0013 15.5947Z" fill="#956F4C"/>
</svg>
