<svg width="16" height="17" viewBox="0 0 16 17" fill="none" xmlns="http://www.w3.org/2000/svg">
<path d="M14.6641 12.2712C14.6641 13.0075 14.0671 13.6045 13.3307 13.6045L2.66406 13.6045C1.92768 13.6045 1.33073 13.0075 1.33073 12.2712L1.33073 10.0412C1.33073 9.55385 1.59665 9.10531 2.02425 8.87143L7.35759 5.95443C7.75626 5.73638 8.23853 5.73638 8.6372 5.95443L13.9705 8.87144C14.3981 9.10531 14.6641 9.55385 14.6641 10.0412L14.6641 12.2712Z" fill="#956F4C"/>
<path d="M3.33203 4.27116C3.33203 3.90297 3.63051 3.60449 3.9987 3.60449H11.9987C12.3669 3.60449 12.6654 3.90297 12.6654 4.27116V12.2712C12.6654 12.6393 12.3669 12.9378 11.9987 12.9378H3.9987C3.63051 12.9378 3.33203 12.6393 3.33203 12.2712V4.27116Z" fill="#E9E9E9"/>
<path d="M2.66406 4.93815C2.66406 4.56996 2.96254 4.27148 3.33073 4.27148H12.6641C13.0323 4.27148 13.3307 4.56996 13.3307 4.93815V12.9382C13.3307 13.3063 13.0323 13.6048 12.6641 13.6048H3.33073C2.96254 13.6048 2.66406 13.3063 2.66406 12.9382V4.93815Z" fill="white"/>
<path fill-rule="evenodd" clip-rule="evenodd" d="M4.33203 8.9375H1.9987C1.63051 8.9375 1.33203 9.23598 1.33203 9.60417V13.6042C1.33203 13.9724 1.63051 14.2708 1.9987 14.2708H13.9987C14.3669 14.2708 14.6654 13.9724 14.6654 13.6042V9.60417C14.6654 9.23598 14.3669 8.9375 13.9987 8.9375H11.6654L11.4152 10.6528C11.3675 10.9803 11.0866 11.2232 10.7555 11.2232H5.24186C4.91083 11.2232 4.62994 10.9803 4.58217 10.6528L4.33203 8.9375Z" fill="#C8A584"/>
<path d="M5.33203 12.9382C5.33203 12.57 5.63051 12.2715 5.9987 12.2715H9.9987C10.3669 12.2715 10.6654 12.57 10.6654 12.9382C10.6654 13.3063 10.3669 13.6048 9.9987 13.6048H5.9987C5.63051 13.6048 5.33203 13.3063 5.33203 12.9382Z" fill="#E4CAB1"/>
<path fill-rule="evenodd" clip-rule="evenodd" d="M8.19436 5.81619C8.08878 5.7019 7.90817 5.7019 7.8026 5.81619L6.10256 7.65653C5.94479 7.82732 6.06593 8.10414 6.29844 8.10414H6.68615C6.67244 8.15741 6.66514 8.21326 6.66514 8.27081V9.60414C6.66514 9.97233 6.96362 10.2708 7.33181 10.2708H8.66514C9.03333 10.2708 9.33181 9.97233 9.33181 9.60414V8.27081C9.33181 8.21326 9.32452 8.15741 9.31081 8.10414H9.69851C9.93102 8.10414 10.0522 7.82732 9.89439 7.65653L8.19436 5.81619Z" fill="#956F4C"/>
</svg>
