<svg width="16" height="17" viewBox="0 0 16 17" fill="none" xmlns="http://www.w3.org/2000/svg">
<path fill-rule="evenodd" clip-rule="evenodd" d="M13.5514 7.0414C13.7597 7.0414 13.9286 6.87251 13.9286 6.66418L13.9286 3.64943C13.9286 3.64841 13.9286 3.6474 13.9286 3.64638C13.9286 3.43805 13.7597 3.26916 13.5514 3.26916L10.5337 3.26916C10.3253 3.26916 10.1564 3.43805 10.1564 3.64638C10.1564 3.85471 10.3253 4.02359 10.5337 4.02359L13.1742 4.02359L13.1742 6.66418C13.1742 6.87251 13.343 7.0414 13.5514 7.0414Z" fill="#525252"/>
<path fill-rule="evenodd" clip-rule="evenodd" d="M13.5514 11.0934C13.7597 11.0934 13.9286 11.2623 13.9286 11.4706L13.9286 14.4853C13.9286 14.4864 13.9286 14.4874 13.9286 14.4884C13.9286 14.6967 13.7597 14.8656 13.5514 14.8656L10.5337 14.8656C10.3253 14.8656 10.1564 14.6967 10.1564 14.4884C10.1564 14.2801 10.3253 14.1112 10.5337 14.1112L13.1742 14.1112L13.1742 11.4706C13.1742 11.2623 13.343 11.0934 13.5514 11.0934Z" fill="#525252"/>
<path fill-rule="evenodd" clip-rule="evenodd" d="M2.71034 7.0414C2.50201 7.0414 2.33313 6.87251 2.33313 6.66418L2.33313 3.64943C2.33312 3.64841 2.33311 3.6474 2.33311 3.64638C2.33311 3.43805 2.502 3.26916 2.71033 3.26916L5.72807 3.26916C5.9364 3.26916 6.10528 3.43805 6.10528 3.64638C6.10528 3.85471 5.9364 4.02359 5.72807 4.02359L3.08756 4.02359L3.08756 6.66418C3.08756 6.87251 2.91867 7.0414 2.71034 7.0414Z" fill="#525252"/>
<path fill-rule="evenodd" clip-rule="evenodd" d="M2.71034 11.0934C2.50201 11.0934 2.33313 11.2623 2.33313 11.4706L2.33313 14.4853C2.33312 14.4864 2.33311 14.4874 2.33311 14.4884C2.33311 14.6967 2.502 14.8656 2.71033 14.8656L5.72807 14.8656C5.9364 14.8656 6.10528 14.6967 6.10528 14.4884C6.10528 14.2801 5.9364 14.1112 5.72807 14.1112L3.08756 14.1112L3.08756 11.4706C3.08756 11.2623 2.91867 11.0934 2.71034 11.0934Z" fill="#525252"/>
<path d="M13.3333 8.27051C13.7015 8.27051 14 8.56898 14 8.93717C14 9.30536 13.7015 9.60384 13.3333 9.60384L2.66667 9.60384C2.29848 9.60384 2 9.30536 2 8.93717C2 8.56898 2.29848 8.27051 2.66667 8.27051L13.3333 8.27051Z" fill="#956F4C"/>
</svg>
