<svg width="24" height="25" viewBox="0 0 24 25" fill="none" xmlns="http://www.w3.org/2000/svg">
<path d="M17 4C17.8284 4 18.5 4.67157 18.5 5.5L18.5 19.5C18.5 20.3284 17.8284 21 17 21L7 21C6.17157 21 5.5 20.3284 5.5 19.5L5.5 5.5C5.5 4.67157 6.17157 4 7 4L17 4Z" fill="white" stroke="#E4CAB1"/>
<rect x="7" y="6.61816" width="8" height="1" fill="#E9E9E9"/>
<rect x="7" y="8.61816" width="6" height="1" fill="#E9E9E9"/>
<rect x="7" y="10.5" width="6" height="1" fill="#E9E9E9"/>
<path d="M15.8579 19.4976C15.6796 19.8064 15.2849 19.9121 14.9762 19.7339L13.8582 19.0884C13.5495 18.9102 13.4437 18.5154 13.6219 18.2067L16.5265 13.1758C16.7048 12.867 17.0995 12.7613 17.4083 12.9395L18.5262 13.585C18.835 13.7632 18.9408 14.158 18.7625 14.4667L15.8579 19.4976Z" fill="#956F4C"/>
<path d="M18.4414 15.0273L16.2054 13.7364L16.8509 12.6184C17.2074 12.001 17.9969 11.7894 18.6144 12.1459C19.2318 12.5024 19.4434 13.2919 19.0869 13.9094L18.4414 15.0273Z" fill="#C8A584"/>
<path d="M17.4727 16.7031L15.2367 15.4122L15.8822 14.2942L18.1181 15.5851L17.4727 16.7031Z" fill="#FFF0C8"/>
<path d="M14.0187 20.1761L15.5134 19.7813L13.5455 18.6452L14.0187 20.1761Z" fill="#956F4C"/>
</svg>
