<svg width="24" height="25" viewBox="0 0 24 25" fill="none" xmlns="http://www.w3.org/2000/svg">
<path fill-rule="evenodd" clip-rule="evenodd" d="M7 4.5H17C18.6569 4.5 20 5.84315 20 7.5V14.5V16.5V17.5C20 19.1569 18.6569 20.5 17 20.5H7C5.34314 20.5 4 19.1569 4 17.5V16.5V14.5V7.5C4 5.84314 5.34315 4.5 7 4.5ZM18 7.5V14.5H14.4453L14.4304 14.4837L13.4177 13.3987C13.0403 12.9944 12.4063 12.9732 12.0027 13.3515L11.6104 13.7193L10.3724 12.3044C9.99147 11.8691 9.32174 11.8468 8.9127 12.2558L6.70896 14.4595C6.69567 14.4728 6.68285 14.4863 6.67051 14.5H6V7.5C6 6.94772 6.44772 6.5 7 6.5H17C17.5523 6.5 18 6.94772 18 7.5ZM6 17.5V16.5H18V17.5C18 18.0523 17.5523 18.5 17 18.5H7C6.44772 18.5 6 18.0523 6 17.5ZM15.1667 9.83333C15.811 9.83333 16.3333 9.311 16.3333 8.66667C16.3333 8.02233 15.811 7.5 15.1667 7.5C14.5223 7.5 14 8.02233 14 8.66667C14 9.311 14.5223 9.83333 15.1667 9.83333Z" fill="#292929"/>
</svg>
