<svg width="24" height="25" viewBox="0 0 24 25" fill="none" xmlns="http://www.w3.org/2000/svg">
<path d="M13 8.01764C13 9.96038 10.7614 11.5353 8 11.5353C5.23858 11.5353 3 9.96038 3 8.01764C3 6.0749 5.23858 4.5 8 4.5C10.7614 4.5 13 6.0749 13 8.01764Z" fill="#C8A584"/>
<path d="M5.10089 9.5C5.14811 9.37831 5.27757 9.3059 5.41003 9.3271L7.26382 9.62368C7.51085 9.6632 7.58541 9.97204 7.38208 10.1135L4.68531 11.9895C4.45937 12.1467 4.16007 11.9248 4.25791 11.6726L5.10089 9.5Z" fill="#C8A584"/>
<path d="M6 13.7765C6 16.6906 9.35786 19.0529 13.5 19.0529C17.6421 19.0529 21 16.6906 21 13.7765C21 10.8624 17.6421 8.5 13.5 8.5C9.35786 8.5 6 10.8624 6 13.7765Z" fill="#956F4C"/>
<path d="M17.8487 16.4275C17.7778 16.245 17.5836 16.1364 17.385 16.1682L14.6043 16.6131C14.2337 16.6724 14.1219 17.1356 14.4269 17.3478L18.472 20.1618C18.8109 20.3976 19.2599 20.0647 19.1131 19.6865L17.8487 16.4275Z" fill="#956F4C"/>
<path d="M15.9978 13.6837C15.9978 14.2755 16.4775 14.7552 17.0692 14.7552C17.6609 14.7552 18.1406 14.2755 18.1406 13.6837C18.1406 13.092 17.6609 12.6123 17.0692 12.6123C16.4775 12.6123 15.9978 13.092 15.9978 13.6837Z" fill="#FFF7E1"/>
<path d="M12.4275 13.6837C12.4275 14.2755 12.9072 14.7552 13.4989 14.7552C14.0906 14.7552 14.5703 14.2755 14.5703 13.6837C14.5703 13.092 14.0906 12.6123 13.4989 12.6123C12.9072 12.6123 12.4275 13.092 12.4275 13.6837Z" fill="#FFF7E1"/>
<path d="M8.85714 13.6837C8.85714 14.2755 9.33684 14.7552 9.92857 14.7552C10.5203 14.7552 11 14.2755 11 13.6837C11 13.092 10.5203 12.6123 9.92857 12.6123C9.33684 12.6123 8.85714 13.092 8.85714 13.6837Z" fill="#FFF7E1"/>
</svg>
