<svg width="24" height="25" viewBox="0 0 24 25" fill="none" xmlns="http://www.w3.org/2000/svg">
<path fill-rule="evenodd" clip-rule="evenodd" d="M16.1169 6.26858L7.96271 6.26858L7.53319 10.8801L16.5464 10.8801L16.1169 6.26858ZM7.96271 5.5C7.5686 5.5 7.23924 5.80189 7.20245 6.19684L6.77293 10.8083C6.73094 11.2592 7.08332 11.6486 7.53319 11.6486H16.5464C16.9963 11.6486 17.3487 11.2592 17.3067 10.8083L16.8772 6.19684C16.8404 5.80189 16.511 5.5 16.1169 5.5H7.96271Z" fill="#956F4C"/>
<rect x="4.13281" y="9.01367" width="16.3378" height="9.48649" rx="1.58108" fill="white"/>
<path d="M4.13281 13.7568H8.61254" stroke="#E4CAB1" stroke-width="0.790541"/>
<rect x="11.25" y="10.5947" width="2.10811" height="6.32432" rx="0.527027" fill="#956F4C"/>
<rect x="15.4648" y="12.7031" width="2.10811" height="6.32432" rx="0.527027" transform="rotate(90 15.4648 12.7031)" fill="#956F4C"/>
<path d="M15.9922 13.7568H20.4719" stroke="#E4CAB1" stroke-width="0.790541"/>
</svg>
