<svg width="24" height="25" viewBox="0 0 24 25" fill="none" xmlns="http://www.w3.org/2000/svg">
<path fill-rule="evenodd" clip-rule="evenodd" d="M5.20703 7C4.65475 7 4.20703 7.44772 4.20703 8C4.20703 8.55228 4.65475 9 5.20703 9C5.75932 9 6.20703 8.55228 6.20703 8C6.20703 7.44772 5.75932 7 5.20703 7ZM8.21866 7.00046C7.66643 6.9932 7.21421 7.435 7.2086 7.98725C7.203 8.53951 7.64613 8.99309 8.19837 9.00036L18.7804 9.1396C19.3326 9.14686 19.7848 8.70506 19.7905 8.1528C19.7961 7.60055 19.3529 7.14696 18.8007 7.1397L8.21866 7.00046ZM7.2086 12.6523C7.21421 12.1 7.66643 11.6582 8.21866 11.6655L18.8007 11.8047C19.3529 11.812 19.7961 12.2656 19.7905 12.8178C19.7848 13.3701 19.3326 13.8119 18.7804 13.8046L8.19837 13.6654C7.64613 13.6581 7.203 13.2045 7.2086 12.6523ZM5.20703 11.665C4.65475 11.665 4.20703 12.1128 4.20703 12.665C4.20703 13.2173 4.65475 13.665 5.20703 13.665C5.75932 13.665 6.20703 13.2173 6.20703 12.665C6.20703 12.1128 5.75932 11.665 5.20703 11.665ZM7.2086 17.3183C7.21421 16.7661 7.66643 16.3243 8.21866 16.3315L18.8007 16.4708C19.3529 16.478 19.7961 16.9316 19.7905 17.4839C19.7848 18.0361 19.3326 18.4779 18.7804 18.4707L8.19837 18.3314C7.64613 18.3241 7.203 17.8706 7.2086 17.3183ZM5.20703 16.3311C4.65475 16.3311 4.20703 16.7788 4.20703 17.3311C4.20703 17.8833 4.65475 18.3311 5.20703 18.3311C5.75932 18.3311 6.20703 17.8833 6.20703 17.3311C6.20703 16.7788 5.75932 16.3311 5.20703 16.3311Z" fill="#292929"/>
</svg>
