<svg width="24" height="25" viewBox="0 0 24 25" fill="none" xmlns="http://www.w3.org/2000/svg">
<rect y="0.5" width="24" height="24" rx="4" fill="#EEE3D9"/>
<path d="M4.89062 7.16645C4.89062 6.18461 5.68656 5.38867 6.6684 5.38867H17.3351C18.3169 5.38867 19.1128 6.18461 19.1128 7.16645V17.8331C19.1128 18.815 18.3169 19.6109 17.3351 19.6109H6.6684C5.68656 19.6109 4.89062 18.815 4.89062 17.8331V7.16645Z" fill="white"/>
<path fill-rule="evenodd" clip-rule="evenodd" d="M6.66667 4.5H17.3333C18.8061 4.5 20 5.69391 20 7.16667V17.8333C20 19.3061 18.8061 20.5 17.3333 20.5H6.66667C5.19391 20.5 4 19.3061 4 17.8333V7.16667C4 5.69391 5.19391 4.5 6.66667 4.5ZM6.66667 5.38889C5.68483 5.38889 4.88889 6.18483 4.88889 7.16667V17.8333C4.88889 18.8152 5.68483 19.6111 6.66667 19.6111H17.3333C18.3152 19.6111 19.1111 18.8152 19.1111 17.8333V7.16667C19.1111 6.18483 18.3152 5.38889 17.3333 5.38889H6.66667Z" fill="#E4CAB1"/>
<path d="M17.332 8.05566L17.332 8.94455L9.33203 8.94455L9.33203 8.05566L17.332 8.05566Z" fill="#E9E9E9"/>
<path d="M17.332 10.7227L17.332 11.6115L9.33203 11.6115L9.33203 10.7227L17.332 10.7227Z" fill="#E9E9E9"/>
<path d="M17.332 13.3887L17.332 14.2776L9.33203 14.2776L9.33203 13.3887L17.332 13.3887Z" fill="#E9E9E9"/>
<path d="M17.332 16.0557L17.332 16.9446L9.33203 16.9446L9.33203 16.0557L17.332 16.0557Z" fill="#E9E9E9"/>
<circle cx="7.11241" cy="8.50011" r="0.444444" fill="#956F4C"/>
<circle cx="7.11241" cy="11.1671" r="0.444444" fill="#956F4C"/>
<circle cx="7.11241" cy="13.8331" r="0.444444" fill="#956F4C"/>
<circle cx="7.11241" cy="16.5001" r="0.444444" fill="#956F4C"/>
</svg>
