<svg width="24" height="25" viewBox="0 0 24 25" fill="none" xmlns="http://www.w3.org/2000/svg">
<circle cx="12" cy="10.5" r="5" fill="white"/>
<path fill-rule="evenodd" clip-rule="evenodd" d="M18.5546 12.9625C18.8425 12.1965 19 11.3666 19 10.5C19 6.63401 15.866 3.5 12 3.5C8.13401 3.5 5 6.63401 5 10.5C5 11.3666 5.15748 12.1965 5.44539 12.9625C6.59904 16.4154 9.75109 20.1533 12 22.5C14.2489 20.1533 17.401 16.4154 18.5546 12.9625ZM12 15.5C14.7614 15.5 17 13.2614 17 10.5C17 7.73858 14.7614 5.5 12 5.5C9.23858 5.5 7 7.73858 7 10.5C7 13.2614 9.23858 15.5 12 15.5Z" fill="#956F4C"/>
<path d="M13.7178 12.2567C13.328 11.4168 13.1594 11.2014 12.8312 10.8039C12.6325 10.5632 12.337 10.4209 12.0249 10.4209C11.7085 10.4209 11.4108 10.5681 11.2064 10.8095C10.8589 11.2198 10.6362 11.4595 10.3076 12.2423C10.2378 12.4085 10.2294 12.5943 10.2781 12.7679C10.3941 13.1822 10.8077 13.439 11.2305 13.3593L11.3265 13.3413C11.4107 13.3254 11.4924 13.298 11.5693 13.2599L11.6227 13.2334C11.8979 13.0968 12.2233 13.1081 12.4884 13.2635L12.4952 13.2675C12.5901 13.3231 12.6946 13.3602 12.8033 13.3768L12.8616 13.3857C13.282 13.4501 13.6802 13.177 13.7716 12.7617C13.809 12.592 13.7909 12.4143 13.7178 12.2567Z" fill="#956F4C"/>
<path d="M9.12271 10.9861C9.17983 11.4106 9.44686 11.7349 9.77373 11.6898C10.2805 11.5693 10.5018 11.1206 10.269 10.7193C9.98799 10.2349 9.75956 10.0304 9.48647 10.0206C9.21338 10.0108 9.06559 10.5615 9.12271 10.9861Z" fill="#956F4C"/>
<path d="M14.8773 10.9861C14.8202 11.4106 14.5532 11.7349 14.2263 11.6898C13.7195 11.5693 13.4982 11.1206 13.731 10.7193C14.012 10.2349 14.2404 10.0304 14.5135 10.0206C14.7866 10.0108 14.9344 10.5615 14.8773 10.9861Z" fill="#956F4C"/>
<path d="M10.4836 9.49586C10.4619 9.9627 10.6131 10.3608 11.036 10.381C11.7023 10.4128 11.8565 10.0167 11.7477 9.43902C11.6183 8.75224 11.4401 8.49496 11.0552 8.53287C10.6703 8.57077 10.5053 9.02902 10.4836 9.49586Z" fill="#956F4C"/>
<path d="M13.5945 9.49586C13.6163 9.9627 13.4651 10.3608 13.0421 10.381C12.3758 10.4128 12.2216 10.0167 12.3304 9.43902C12.4598 8.75224 12.638 8.49496 13.0229 8.53287C13.4078 8.57077 13.5728 9.02902 13.5945 9.49586Z" fill="#956F4C"/>
</svg>
