<svg width="24" height="25" viewBox="0 0 24 25" fill="none" xmlns="http://www.w3.org/2000/svg">
<path d="M4.57031 7.54818C4.57031 6.18077 5.67882 5.07227 7.04622 5.07227H16.9499C18.3173 5.07227 19.4258 6.18077 19.4258 7.54818V17.4518C19.4258 18.8192 18.3173 19.9277 16.9499 19.9277H7.04622C5.67882 19.9277 4.57031 18.8192 4.57031 17.4518V7.54818Z" fill="white"/>
<path fill-rule="evenodd" clip-rule="evenodd" d="M17.335 5.83154H6.66699C5.93052 5.83154 5.3335 6.42857 5.3335 7.16504V17.833C5.3335 18.5695 5.93052 19.1665 6.66699 19.1665H17.335C18.0714 19.1665 18.6685 18.5695 18.6685 17.833V7.16504C18.6685 6.42857 18.0714 5.83154 17.335 5.83154ZM6.66699 4.49805C5.19405 4.49805 4 5.6921 4 7.16504V17.833C4 19.3059 5.19405 20.5 6.66699 20.5H17.335C18.8079 20.5 20.002 19.3059 20.002 17.833V7.16504C20.002 5.6921 18.8079 4.49805 17.335 4.49805H6.66699Z" fill="#C8A584"/>
<path fill-rule="evenodd" clip-rule="evenodd" d="M8.00146 7.8313C8.00146 8.19953 7.70295 8.49805 7.33472 8.49805C6.96648 8.49805 6.66797 8.19953 6.66797 7.8313V4.49756H8.00146L8.00146 7.8313Z" fill="#EE7821"/>
<path d="M6.66797 9.83203H17.3359V11.1655H6.66797V9.83203Z" fill="#E9E9E9"/>
<path d="M6.66797 12.499H14.6689V13.8325H6.66797V12.499Z" fill="#E9E9E9"/>
<path d="M6.66797 15.166H14.6689V16.4995H6.66797V15.166Z" fill="#E9E9E9"/>
</svg>
