<svg width="24" height="25" viewBox="0 0 24 25" fill="none" xmlns="http://www.w3.org/2000/svg">
<path d="M9 12.5C9 13.0523 8.55228 13.5 8 13.5C7.44772 13.5 7 13.0523 7 12.5C7 11.9477 7.44772 11.5 8 11.5C8.55228 11.5 9 11.9477 9 12.5Z" fill="#858585"/>
<path d="M13 12.5C13 13.0523 12.5523 13.5 12 13.5C11.4477 13.5 11 13.0523 11 12.5C11 11.9477 11.4477 11.5 12 11.5C12.5523 11.5 13 11.9477 13 12.5Z" fill="#858585"/>
<path d="M17 12.5C17 13.0523 16.5523 13.5 16 13.5C15.4477 13.5 15 13.0523 15 12.5C15 11.9477 15.4477 11.5 16 11.5C16.5523 11.5 17 11.9477 17 12.5Z" fill="#858585"/>
</svg>
