<svg width="24" height="25" viewBox="0 0 24 25" fill="none" xmlns="http://www.w3.org/2000/svg">
<path d="M4.72042 16.1712C4.88114 15.2068 5.71552 14.5 6.6932 14.5H17.3047C18.2824 14.5 19.1168 15.2068 19.2775 16.1712L19.6108 18.1712C19.814 19.3903 18.8739 20.5 17.638 20.5H6.35987C5.12399 20.5 4.1839 19.3903 4.38708 18.1712L4.72042 16.1712Z" fill="#956F4C"/>
<path d="M7.68775 7.42943C8.16867 5.69815 9.745 4.5 11.5418 4.5H12.4611C14.258 4.5 15.8343 5.69814 16.3152 7.42942L16.593 8.42943C17.301 10.9782 15.3842 13.5 12.7389 13.5H11.264C8.61876 13.5 6.70198 10.9782 7.40998 8.42943L7.68775 7.42943Z" fill="#E4CAB1"/>
<path fill-rule="evenodd" clip-rule="evenodd" d="M12.1422 10.3584C12.2204 10.4365 12.2204 10.5631 12.1422 10.6412C12.0876 10.6958 12.0397 10.7593 11.9814 10.8366C11.9637 10.86 11.9451 10.8847 11.925 10.9108C11.8451 11.0146 11.7463 11.1346 11.6155 11.2262C11.4793 11.3215 11.3135 11.3828 11.107 11.3795C10.9057 11.3762 10.6776 11.3118 10.4114 11.1787C10.3126 11.1293 10.2725 11.0092 10.3219 10.9104C10.3713 10.8116 10.4915 10.7715 10.5903 10.8209C10.824 10.9378 10.9918 10.9776 11.1134 10.9795C11.2298 10.9814 11.314 10.949 11.3861 10.8985C11.4637 10.8442 11.5315 10.7662 11.6079 10.6669C11.6219 10.6487 11.6366 10.6292 11.6519 10.609C11.7127 10.5281 11.783 10.4347 11.8594 10.3584C11.9375 10.2803 12.0641 10.2803 12.1422 10.3584Z" fill="#C8A584"/>
<path fill-rule="evenodd" clip-rule="evenodd" d="M11.8578 10.3584C11.7796 10.4365 11.7796 10.5631 11.8578 10.6412C11.9124 10.6958 11.9603 10.7593 12.0186 10.8366C12.0363 10.86 12.0549 10.8847 12.075 10.9108C12.1549 11.0146 12.2537 11.1346 12.3845 11.2262C12.5207 11.3215 12.6865 11.3828 12.893 11.3795C13.0943 11.3762 13.3224 11.3118 13.5886 11.1787C13.6874 11.1293 13.7275 11.0092 13.6781 10.9104C13.6287 10.8116 13.5085 10.7715 13.4097 10.8209C13.176 10.9378 13.0082 10.9776 12.8866 10.9795C12.7702 10.9814 12.686 10.949 12.6139 10.8985C12.5363 10.8442 12.4685 10.7662 12.3921 10.6669C12.3781 10.6487 12.3634 10.6292 12.3481 10.609C12.2873 10.5281 12.217 10.4347 12.1406 10.3584C12.0625 10.2803 11.9359 10.2803 11.8578 10.3584Z" fill="#C8A584"/>
<path d="M11.0953 9.73764C11.1123 9.60188 11.2277 9.5 11.3645 9.5H12.6355C12.7723 9.5 12.8877 9.60188 12.9047 9.73764C12.9553 10.1424 12.6397 10.5 12.2317 10.5H11.7683C11.3603 10.5 11.0447 10.1424 11.0953 9.73764Z" fill="#956F4C"/>
<path d="M7.72474 5.64873C8.08458 5.23966 8.68743 5.15071 9.15008 5.43841Lnan nanL9.15008 5.43841C9.34861 5.56186 9.44897 5.79611 9.40141 6.025L8.84316 8.71151C8.62661 9.75363 7.43918 10.2624 6.53532 9.70032C5.73178 9.20065 5.56924 8.09905 6.19421 7.38859L7.72474 5.64873Z" fill="#956F4C"/>
<path d="M16.3143 5.64873C15.9545 5.23966 15.3516 5.15071 14.889 5.43841Lnan nanL14.889 5.43841C14.6905 5.56186 14.5901 5.79611 14.6377 6.025L15.1959 8.71151C15.4124 9.75363 16.5999 10.2624 17.5037 9.70032C18.3073 9.20065 18.4698 8.09905 17.8449 7.38859L16.3143 5.64873Z" fill="#956F4C"/>
</svg>
