<svg width="24" height="25" viewBox="0 0 24 25" fill="none" xmlns="http://www.w3.org/2000/svg">
<path fill-rule="evenodd" clip-rule="evenodd" d="M13.1335 4.71728C13.136 4.68681 13.1373 4.656 13.1373 4.6249C13.1373 4.00363 12.6256 3.5 11.9944 3.5C11.3632 3.5 10.8516 4.00363 10.8516 4.6249C10.8516 4.65725 10.853 4.68929 10.8557 4.72096C7.61604 5.26795 5.14844 8.08686 5.14844 11.4821V15.725C5.14844 15.807 5.08198 15.8735 5 15.8735C4.44772 15.8735 4 16.3212 4 16.8735V17.1233C4 17.6756 4.44772 18.1233 5 18.1233H5.14821L5.14844 18.1235L5.14866 18.1237H18.8625L18.8627 18.1235L18.863 18.1233H19C19.5523 18.1233 20 17.6756 20 17.1233V16.8735C20 16.3212 19.5523 15.8735 19 15.8735C18.9242 15.8735 18.8627 15.812 18.8627 15.7362V11.4821C18.8627 8.07917 16.3839 5.25519 13.1335 4.71728ZM9.70173 19.2499C9.75825 20.5027 10.76 21.5004 11.9875 21.5004C13.215 21.5004 14.2167 20.5027 14.2732 19.2499H9.70173Z" fill="#292929"/>
</svg>
