<svg width="24" height="25" viewBox="0 0 24 25" fill="none" xmlns="http://www.w3.org/2000/svg">
<path d="M8.99609 11.7549C9.54838 11.7549 9.99609 12.1131 9.99609 12.5549L9.99609 18.9549C9.99609 19.3967 9.54838 19.7549 8.99609 19.7549C8.44381 19.7549 7.99609 19.3967 7.99609 18.9549L7.99609 12.5549C7.99609 12.1131 8.44381 11.7549 8.99609 11.7549Z" fill="#525252"/>
<path d="M17.8086 9.75488C17.8086 10.5833 17.137 11.2549 16.3086 11.2549C15.4802 11.2549 14.8086 10.5833 14.8086 9.75488C14.8086 8.92646 15.4802 8.25488 16.3086 8.25488C17.137 8.25488 17.8086 8.92646 17.8086 9.75488Z" fill="#E4CAB1" stroke="#E4CAB1"/>
<path d="M8.99609 6.75502L15.7576 5.06548C16.3887 4.90778 17 5.38512 17 6.03565V13.4744C17 14.1249 16.3887 14.6023 15.7576 14.4446L8.99609 12.755V6.75502Z" fill="#EEE3D9"/>
<path d="M16.5 4.75488C16.7761 4.75488 17 4.97874 17 5.25488L17 14.2549C17 14.531 16.7761 14.7549 16.5 14.7549C16.2239 14.7549 16 14.531 16 14.2549L16 5.25488C16 4.97874 16.2239 4.75488 16.5 4.75488Z" fill="#C8A584"/>
<path fill-rule="evenodd" clip-rule="evenodd" d="M8.99609 6.75488C7.33924 6.75488 5.99609 8.09803 5.99609 9.75488C5.99609 11.4117 7.33924 12.7549 8.99609 12.7549V6.75488Z" fill="#956F4C"/>
</svg>
