<svg width="24" height="25" viewBox="0 0 24 25" fill="none" xmlns="http://www.w3.org/2000/svg">
<path d="M5 16.5C5 15.9477 5.44772 15.5 6 15.5H8C8.55228 15.5 9 15.9477 9 16.5V18.5C9 19.0523 8.55228 19.5 8 19.5H6C5.44772 19.5 5 19.0523 5 18.5V16.5Z" fill="#525252"/>
<path d="M15 16.5C15 15.9477 15.4477 15.5 16 15.5H18C18.5523 15.5 19 15.9477 19 16.5V18.5C19 19.0523 18.5523 19.5 18 19.5H16C15.4477 19.5 15 19.0523 15 18.5V16.5Z" fill="#525252"/>
<path d="M6.53933 6.22C6.66377 5.79333 7.05488 5.5 7.49933 5.5H16.4993C16.9438 5.5 17.3349 5.79333 17.4593 6.22L18.626 10.22C18.8127 10.86 18.3327 11.5 17.666 11.5H6.33266C5.66599 11.5 5.18599 10.86 5.37266 10.22L6.53933 6.22Z" fill="#D8EEFA"/>
<path fill-rule="evenodd" clip-rule="evenodd" d="M16.4993 6.5H7.49933L6.33266 10.5H17.666L16.4993 6.5ZM7.49933 5.5C7.05488 5.5 6.66377 5.79333 6.53933 6.22L5.37266 10.22C5.18599 10.86 5.66599 11.5 6.33266 11.5H17.666C18.3327 11.5 18.8127 10.86 18.626 10.22L17.4593 6.22C17.3349 5.79333 16.9438 5.5 16.4993 5.5H7.49933Z" fill="#956F4C"/>
<path d="M4 11.5C4 10.3954 4.89543 9.5 6 9.5H18C19.1046 9.5 20 10.3954 20 11.5V15.5C20 16.6046 19.1046 17.5 18 17.5H6C4.89543 17.5 4 16.6046 4 15.5V11.5Z" fill="#956F4C"/>
<path fill-rule="evenodd" clip-rule="evenodd" d="M18 10.5H6C5.44772 10.5 5 10.9477 5 11.5V15.5C5 16.0523 5.44772 16.5 6 16.5H18C18.5523 16.5 19 16.0523 19 15.5V11.5C19 10.9477 18.5523 10.5 18 10.5ZM6 9.5C4.89543 9.5 4 10.3954 4 11.5V15.5C4 16.6046 4.89543 17.5 6 17.5H18C19.1046 17.5 20 16.6046 20 15.5V11.5C20 10.3954 19.1046 9.5 18 9.5H6Z" fill="#956F4C"/>
<path d="M3 16.5C3 15.9477 3.44772 15.5 4 15.5H20C20.5523 15.5 21 15.9477 21 16.5C21 17.0523 20.5523 17.5 20 17.5H4C3.44772 17.5 3 17.0523 3 16.5Z" fill="#F6F1ED"/>
<path d="M7 13.5C7 12.9477 7.44772 12.5 8 12.5C8.55228 12.5 9 12.9477 9 13.5C9 14.0523 8.55228 14.5 8 14.5C7.44772 14.5 7 14.0523 7 13.5Z" fill="#F6F1ED"/>
<path d="M15 13.5C15 12.9477 15.4477 12.5 16 12.5C16.5523 12.5 17 12.9477 17 13.5C17 14.0523 16.5523 14.5 16 14.5C15.4477 14.5 15 14.0523 15 13.5Z" fill="#F6F1ED"/>
<path d="M9 9.5L11.5 6.5H15L12.5 9.5H9Z" fill="#E4F6FF"/>
</svg>
