<svg width="24" height="25" viewBox="0 0 24 25" fill="none" xmlns="http://www.w3.org/2000/svg">
<rect x="5" y="5.5" width="14" height="14" rx="1" fill="#C8A584"/>
<rect x="6.16797" y="6.66699" width="11.6667" height="9.33333" rx="1" fill="#E4CAB1"/>
<path d="M10.0788 12.0888L7.87508 14.2926C7.24511 14.9225 7.69128 15.9997 8.58218 15.9997H12.7142C13.5734 15.9997 14.0325 14.9878 13.4668 14.3412L11.5385 12.1374C11.1576 11.7021 10.4879 11.6798 10.0788 12.0888Z" fill="white"/>
<path d="M13.8342 13.1855L12.6769 14.2705C12.0155 14.8905 12.4543 16 13.3608 16H15.5308C16.4052 16 16.8585 14.9569 16.2619 14.3177L15.2492 13.2327C14.8718 12.8283 14.2378 12.8071 13.8342 13.1855Z" fill="white"/>
<circle cx="15.4987" cy="8.99967" r="1.16667" fill="white"/>
</svg>
