<svg width="24" height="25" viewBox="0 0 24 25" fill="none" xmlns="http://www.w3.org/2000/svg">
<path d="M3.19978 15.1148C3.09536 14.504 3.56585 13.9463 4.18548 13.9463H19.8145C20.4342 13.9463 20.9046 14.504 20.8002 15.1148L20.1163 19.1148C20.0342 19.5951 19.6179 19.9463 19.1306 19.9463H4.86936C4.38211 19.9463 3.96578 19.5951 3.88367 19.1148L3.19978 15.1148Z" fill="#E4CAB1"/>
<path d="M5.31641 13.9463H18.6836L17.9922 4.87033C17.9525 4.34902 17.5179 3.94629 16.9951 3.94629H7.00492C6.4821 3.94629 6.04753 4.34902 6.00781 4.87033L5.31641 13.9463Z" fill="#D9D9D9"/>
<path d="M16 3.94629L8 3.94629L8.40217 11.0032C8.43234 11.5325 8.87037 11.9463 9.40055 11.9463L14.5994 11.9463C15.1296 11.9463 15.5677 11.5325 15.5978 11.0032L16 3.94629Z" fill="#B5B5B5"/>
<path d="M5 13.9463H19L18.3626 17.1419C18.2693 17.6096 17.8588 17.9463 17.3819 17.9463H6.6181C6.14122 17.9463 5.7307 17.6096 5.63742 17.1419L5 13.9463Z" fill="#C8A584"/>
<path d="M3 14.4463H21L20.9869 13.4334C20.9799 12.8862 20.5343 12.4463 19.987 12.4463H4.01299C3.46574 12.4463 3.02014 12.8862 3.01308 13.4334L3 14.4463Z" fill="#E9E9E9"/>
<path d="M3 14.4463H21L20.9993 14.4721C20.9853 15.0142 20.5419 15.4463 19.9997 15.4463H4.00033C3.4581 15.4463 3.01466 15.0142 3.00067 14.4721L3 14.4463Z" fill="#956F4C"/>
<path d="M14 17.9463L10 17.9463L10.1269 16.833C10.1845 16.3278 10.612 15.9463 11.1205 15.9463L12.8795 15.9463C13.388 15.9463 13.8155 16.3278 13.8731 16.833L14 17.9463Z" fill="#956F4C"/>
<g filter="url(#filter0_i_4672_168720)">
<path fill-rule="evenodd" clip-rule="evenodd" d="M13.1319 8.83134C13.6218 8.89588 14 9.31514 14 9.82273C14 9.86472 13.9974 9.90611 13.9924 9.94675H14C14.5523 9.94675 15 10.3945 15 10.9467C15 11.499 14.5523 11.9467 14 11.9467H10C9.44772 11.9467 9 11.499 9 10.9467C9 10.3945 9.44772 9.94675 10 9.94675H10.0076C10.0026 9.90611 10 9.86472 10 9.82273C10 9.27044 10.4477 8.82273 11 8.82273H11.262C11.5066 8.75672 11.6773 8.5248 11.6582 8.26348L11.6553 8.22318C11.6242 7.79842 12.0902 7.51955 12.4498 7.74775C12.5108 7.78642 12.563 7.83738 12.6031 7.89739L12.9988 8.48955C13.0699 8.59605 13.1137 8.71272 13.1319 8.83134Z" fill="#885D36"/>
</g>
<defs>
<filter id="filter0_i_4672_168720" x="9" y="7.66602" width="6" height="4.28027" filterUnits="userSpaceOnUse" color-interpolation-filters="sRGB">
<feFlood flood-opacity="0" result="BackgroundImageFix"/>
<feBlend mode="normal" in="SourceGraphic" in2="BackgroundImageFix" result="shape"/>
<feColorMatrix in="SourceAlpha" type="matrix" values="0 0 0 0 0 0 0 0 0 0 0 0 0 0 0 0 0 0 127 0" result="hardAlpha"/>
<feOffset dx="-0.2"/>
<feComposite in2="hardAlpha" operator="arithmetic" k2="-1" k3="1"/>
<feColorMatrix type="matrix" values="0 0 0 0 0 0 0 0 0 0 0 0 0 0 0 0 0 0 0.15 0"/>
<feBlend mode="normal" in2="shape" result="effect1_innerShadow_4672_168720"/>
</filter>
</defs>
</svg>
