<svg width="24" height="25" viewBox="0 0 24 25" fill="none" xmlns="http://www.w3.org/2000/svg">
<rect y="0.5" width="24" height="24" rx="12" fill="#EEE3D9"/>
<path d="M6 5.38889C6 4.89797 6.38376 4.5 6.85714 4.5H17.1429C17.6162 4.5 18 4.89797 18 5.38889V19.6111C18 20.102 17.6162 20.5 17.1429 20.5H6.85714C6.38376 20.5 6 20.102 6 19.6111V5.38889Z" fill="white"/>
<path fill-rule="evenodd" clip-rule="evenodd" d="M17.1429 5.38889H6.85714V19.6111H17.1429V5.38889ZM6.85714 4.5C6.38376 4.5 6 4.89797 6 5.38889V19.6111C6 20.102 6.38376 20.5 6.85714 20.5H17.1429C17.6162 20.5 18 20.102 18 19.6111V5.38889C18 4.89797 17.6162 4.5 17.1429 4.5H6.85714Z" fill="#956F4C"/>
<path d="M16 8.5L16 9.5L8 9.5L8 8.5L16 8.5Z" fill="#E9E9E9"/>
<path d="M16 11.5L16 12.5L8 12.5L8 11.5L16 11.5Z" fill="#E9E9E9"/>
<path d="M13 14.5L13 15.5L8 15.5L8 14.5L13 14.5Z" fill="#E9E9E9"/>
<path d="M15.5856 18.7333C15.4283 19.0057 15.0799 19.099 14.8075 18.9417L13.8208 18.3721C13.5484 18.2148 13.455 17.8664 13.6123 17.594L16.1757 13.1542C16.333 12.8817 16.6813 12.7884 16.9538 12.9457L17.9404 13.5153C18.2129 13.6726 18.3062 14.021 18.1489 14.2934L15.5856 18.7333Z" fill="#956F4C"/>
<path d="M17.8633 14.7871L15.89 13.6479L16.4597 12.6612C16.7743 12.1163 17.471 11.9296 18.0159 12.2442C18.5608 12.5588 18.7475 13.2556 18.4329 13.8005L17.8633 14.7871Z" fill="#C8A584"/>
<path d="M17.0078 16.2666L15.0346 15.1273L15.6042 14.1407L17.5774 15.28L17.0078 16.2666Z" fill="#FFF0C8"/>
<path d="M13.9624 19.3314L15.2814 18.983L13.5448 17.9803L13.9624 19.3314Z" fill="#956F4C"/>
</svg>
