<svg width="24" height="25" viewBox="0 0 24 25" fill="none" xmlns="http://www.w3.org/2000/svg">
<rect y="0.5" width="24" height="24" rx="12" fill="#FFF7E1"/>
<path d="M4.72147 16.1712C4.8822 15.2068 5.71658 14.5 6.69425 14.5H17.3057C18.2834 14.5 19.1178 15.2068 19.2785 16.1712L19.6119 18.1712C19.815 19.3903 18.875 20.5 17.6391 20.5H6.36092C5.12504 20.5 4.18496 19.3903 4.38813 18.1712L4.72147 16.1712Z" fill="#956F4C"/>
<path d="M7.68627 7.42943C8.16718 5.69815 9.74351 4.5 11.5403 4.5H12.4597C14.2565 4.5 15.8328 5.69814 16.3137 7.42942L16.5915 8.42943C17.2995 10.9782 15.3827 13.5 12.7374 13.5H11.2626C8.61728 13.5 6.7005 10.9782 7.40849 8.42943L7.68627 7.42943Z" fill="#E4CAB1"/>
<path d="M12 10.5C11.6667 10.8333 11.5 11.5 10.5 11" stroke="#C8A584" stroke-width="0.4" stroke-linecap="round"/>
<path d="M12 10.5C12.3333 10.8333 12.5 11.5 13.5 11" stroke="#C8A584" stroke-width="0.4" stroke-linecap="round"/>
<path d="M11.0953 9.73764C11.1123 9.60188 11.2277 9.5 11.3645 9.5H12.6355C12.7723 9.5 12.8877 9.60188 12.9047 9.73764C12.9553 10.1424 12.6397 10.5 12.2317 10.5H11.7683C11.3603 10.5 11.0447 10.1424 11.0953 9.73764Z" fill="#956F4C"/>
<path d="M7.7247 5.64894C8.08455 5.23988 8.68739 5.15092 9.15005 5.43862C9.34857 5.56208 9.44894 5.79632 9.40138 6.02522L8.84313 8.71173C8.62658 9.75384 7.43915 10.2626 6.53528 9.70054C5.73175 9.20087 5.5692 8.09926 6.19417 7.38881L7.7247 5.64894Z" fill="#956F4C"/>
<path d="M16.3144 5.64894C15.9545 5.23988 15.3517 5.15092 14.889 5.43862C14.6905 5.56208 14.5901 5.79632 14.6377 6.02522L15.1959 8.71173C15.4125 9.75384 16.5999 10.2626 17.5038 9.70054C18.3073 9.20087 18.4699 8.09926 17.8449 7.38881L16.3144 5.64894Z" fill="#956F4C"/>
<circle cx="17" cy="15.5" r="3" fill="#858585"/>
<path fill-rule="evenodd" clip-rule="evenodd" d="M15.1546 15.5205C15.1546 15.7266 15.3217 15.8937 15.5278 15.8937L16.6484 15.8937L16.6484 17.014C16.6484 17.2201 16.8155 17.3872 17.0216 17.3872C17.2278 17.3872 17.3949 17.2201 17.3949 17.014L17.3949 15.8937H18.5137C18.7198 15.8937 18.8869 15.7266 18.8869 15.5205C18.8869 15.3144 18.7198 15.1473 18.5137 15.1473L17.3949 15.1473L17.3949 14.0281C17.3949 13.822 17.2278 13.6549 17.0216 13.6549C16.8155 13.6549 16.6484 13.822 16.6484 14.0281L16.6484 15.1473L15.5278 15.1473C15.3217 15.1473 15.1546 15.3144 15.1546 15.5205Z" fill="#F7F7F7"/>
</svg>
