<svg width="24" height="25" viewBox="0 0 24 25" fill="none" xmlns="http://www.w3.org/2000/svg">
<rect x="11.0469" y="12.5" width="1.90625" height="8" rx="0.953125" fill="#525252"/>
<rect x="4.54688" y="6.04688" width="14.9063" height="8" rx="2" fill="#EEE3D9"/>
<g filter="url(#filter0_i_5206_103833)">
<path fill-rule="evenodd" clip-rule="evenodd" d="M9.23193 8.38477C8.72199 8.38477 8.30859 8.79816 8.30859 9.30811C8.30859 9.61024 8.45371 9.87848 8.67804 10.0469C8.45371 10.2154 8.30859 10.4836 8.30859 10.7857C8.30859 11.2957 8.72199 11.7091 9.23193 11.7091H9.28004C9.78999 11.7091 10.2034 11.2957 10.2034 10.7857C10.2034 10.7857 10.2034 10.7857 10.2034 10.7857H13.7999V10.7857C13.7999 11.2957 14.2133 11.7091 14.7233 11.7091H14.7714C15.2813 11.7091 15.6947 11.2957 15.6947 10.7857C15.6947 10.4837 15.5497 10.2155 15.3254 10.047C15.5497 9.87858 15.6947 9.61039 15.6947 9.30832C15.6947 8.79837 15.2813 8.38498 14.7714 8.38498H14.7233C14.2133 8.38498 13.7999 8.79837 13.7999 9.30832H10.2034V9.30811C10.2034 8.79816 9.78999 8.38477 9.28004 8.38477H9.23193Z" fill="#956F4C"/>
</g>
<path d="M5.55859 7.5C5.55859 7.22386 5.78245 7 6.05859 7C6.33474 7 6.55859 7.22386 6.55859 7.5C6.55859 7.77614 6.33474 8 6.05859 8C5.78245 8 5.55859 7.77614 5.55859 7.5Z" fill="#E4CAB1"/>
<path d="M17.3164 7.5C17.3164 7.22386 17.5403 7 17.8164 7C18.0925 7 18.3164 7.22386 18.3164 7.5C18.3164 7.77614 18.0925 8 17.8164 8C17.5403 8 17.3164 7.77614 17.3164 7.5Z" fill="#E4CAB1"/>
<defs>
<filter id="filter0_i_5206_103833" x="8.30859" y="8.38477" width="7.38672" height="3.32422" filterUnits="userSpaceOnUse" color-interpolation-filters="sRGB">
<feFlood flood-opacity="0" result="BackgroundImageFix"/>
<feBlend mode="normal" in="SourceGraphic" in2="BackgroundImageFix" result="shape"/>
<feColorMatrix in="SourceAlpha" type="matrix" values="0 0 0 0 0 0 0 0 0 0 0 0 0 0 0 0 0 0 127 0" result="hardAlpha"/>
<feOffset dx="-0.4"/>
<feComposite in2="hardAlpha" operator="arithmetic" k2="-1" k3="1"/>
<feColorMatrix type="matrix" values="0 0 0 0 0 0 0 0 0 0 0 0 0 0 0 0 0 0 0.15 0"/>
<feBlend mode="normal" in2="shape" result="effect1_innerShadow_5206_103833"/>
</filter>
</defs>
</svg>
