<svg width="24" height="25" viewBox="0 0 24 25" fill="none" xmlns="http://www.w3.org/2000/svg">
<rect x="5" y="4.5" width="14" height="14" rx="1" fill="#C8A584"/>
<rect x="6.16797" y="5.66699" width="11.6667" height="9.33333" rx="1" fill="#E4CAB1"/>
<path d="M10.0788 11.0888L7.87508 13.2926C7.24511 13.9225 7.69128 14.9997 8.58218 14.9997H12.7142C13.5734 14.9997 14.0325 13.9878 13.4668 13.3412L11.5385 11.1374C11.1576 10.7021 10.4879 10.6798 10.0788 11.0888Z" fill="white"/>
<path d="M13.8342 12.1855L12.6769 13.2705C12.0155 13.8905 12.4543 15 13.3608 15H15.5308C16.4052 15 16.8585 13.9569 16.2619 13.3177L15.2492 12.2327C14.8718 11.8283 14.2378 11.8071 13.8342 12.1855Z" fill="white"/>
<circle cx="15.4987" cy="7.99967" r="1.16667" fill="white"/>
<path fill-rule="evenodd" clip-rule="evenodd" d="M12.1991 21.4056C12.0918 21.5315 11.9082 21.5315 11.8009 21.4056L10.0725 19.3789C9.9121 19.1909 10.0353 18.886 10.2716 18.886H10.6658C10.6519 18.8274 10.6445 18.7659 10.6445 18.7025V17.2342C10.6445 16.8287 10.9479 16.5 11.3222 16.5H12.6778C13.0521 16.5 13.3555 16.8287 13.3555 17.2342V18.7025C13.3555 18.7659 13.3481 18.8274 13.3342 18.886H13.7284C13.9647 18.886 14.0879 19.1909 13.9275 19.3789L12.1991 21.4056Z" fill="#956F4C"/>
</svg>
