<svg width="24" height="25" viewBox="0 0 24 25" fill="none" xmlns="http://www.w3.org/2000/svg">
<rect x="3" y="6.5" width="10" height="10" rx="1" fill="#956F4C"/>
<rect x="3.83203" y="7.33301" width="8.33333" height="6.66667" rx="1" fill="#E4CAB1"/>
<path d="M6.40955 11.4228L5.53914 12.2932C4.90917 12.9232 5.35534 14.0003 6.24624 14.0003H7.87826C8.73742 14.0003 9.1966 12.9884 8.63084 12.3418L7.86923 11.4714C7.48831 11.0361 6.81858 11.0138 6.40955 11.4228Z" fill="#EEE3D9"/>
<path d="M9.10348 12.1855L9.01281 12.2705C8.35146 12.8905 8.79021 14 9.69675 14H9.86675C10.7411 14 11.1944 12.9569 10.5978 12.3177L10.5185 12.2327C10.141 11.8283 9.50702 11.8071 9.10348 12.1855Z" fill="#EEE3D9"/>
<circle cx="10.5013" cy="9.00033" r="0.833333" fill="#EEE3D9"/>
<rect x="11" y="6.5" width="10" height="10" rx="1" fill="#956F4C"/>
<rect x="11.832" y="7.33301" width="8.33333" height="6.66667" rx="0.2" fill="#E4CAB1"/>
<path d="M15.0142 10.8182L12.1735 13.6589C12.0475 13.7849 12.1367 14.0003 12.3149 14.0003H17.6413C17.8131 14.0003 17.9049 13.7979 17.7918 13.6686L15.3061 10.8279C15.23 10.7408 15.096 10.7363 15.0142 10.8182Z" fill="#EEE3D9"/>
<path d="M17.6884 11.6371L15.5369 13.6541C15.4047 13.7781 15.4924 14 15.6737 14H19.7077C19.8826 14 19.9733 13.7914 19.8539 13.6635L17.9714 11.6465C17.8959 11.5657 17.7691 11.5614 17.6884 11.6371Z" fill="#EEE3D9"/>
<circle cx="18.5013" cy="9.00033" r="0.833333" fill="#EEE3D9"/>
<rect x="5" y="4.5" width="14" height="14" rx="1" fill="#C8A584"/>
<rect x="6.16797" y="5.66602" width="11.6667" height="9.33333" rx="1" fill="#E4CAB1"/>
<path d="M10.0788 11.0898L7.87508 13.2935C7.24511 13.9235 7.69128 15.0007 8.58218 15.0007H12.7142C13.5734 15.0007 14.0325 13.9887 13.4668 13.3421L11.5385 11.1384C11.1576 10.7031 10.4879 10.6808 10.0788 11.0898Z" fill="white"/>
<path d="M13.8342 12.1855L12.6769 13.2705C12.0155 13.8905 12.4543 15 13.3608 15H15.5308C16.4052 15 16.8585 13.9569 16.2619 13.3177L15.2492 12.2327C14.8718 11.8283 14.2378 11.8071 13.8342 12.1855Z" fill="white"/>
<circle cx="15.4987" cy="8.00065" r="1.16667" fill="white"/>
<path fill-rule="evenodd" clip-rule="evenodd" d="M12.1991 21.4056C12.0918 21.5315 11.9082 21.5315 11.8009 21.4056L10.0725 19.3789C9.9121 19.1909 10.0353 18.886 10.2716 18.886H10.6658C10.6519 18.8274 10.6445 18.7659 10.6445 18.7025V17.2342C10.6445 16.8287 10.9479 16.5 11.3222 16.5H12.6778C13.0521 16.5 13.3555 16.8287 13.3555 17.2342V18.7025C13.3555 18.7659 13.3481 18.8274 13.3342 18.886H13.7284C13.9647 18.886 14.0879 19.1909 13.9275 19.3789L12.1991 21.4056Z" fill="#956F4C"/>
</svg>
