<svg width="24" height="25" viewBox="0 0 24 25" fill="none" xmlns="http://www.w3.org/2000/svg">
<path d="M5 10.2857C5 9.85178 5.44772 9.5 6 9.5H18C18.5523 9.5 19 9.85178 19 10.2857V19.7143C19 20.1482 18.5523 20.5 18 20.5H6C5.44772 20.5 5 20.1482 5 19.7143V10.2857Z" fill="#E4CAB1"/>
<path d="M5.88218 8.67812C5.95636 8.56684 6.08125 8.5 6.215 8.5H17.7868C17.9206 8.5 18.0455 8.56684 18.1197 8.67812L19.5863 10.8781C19.7635 11.1439 19.573 11.5 19.2535 11.5H4.74833C4.42885 11.5 4.23829 11.1439 4.41551 10.8781L5.88218 8.67812Z" fill="#956F4C"/>
<path d="M9 7.35714C9 6.88376 9.19188 6.5 9.42857 6.5H14.5714C14.8081 6.5 15 6.88376 15 7.35714V17.6429C15 18.1162 14.8081 18.5 14.5714 18.5H9.42857C9.19188 18.5 9 18.1162 9 17.6429V7.35714Z" fill="#E4CAB1"/>
<path d="M11.5694 3.9496C11.8055 3.7043 12.1981 3.7043 12.4341 3.9496L15.3542 6.98427C15.721 7.36545 15.4509 8.00029 14.9219 8.00029H9.08167C8.55267 8.00029 8.28253 7.36545 8.64932 6.98427L11.5694 3.9496Z" fill="#956F4C"/>
<path d="M13 10.5C13 11.0523 12.5523 11.5 12 11.5C11.4477 11.5 11 11.0523 11 10.5C11 9.94772 11.4477 9.5 12 9.5C12.5523 9.5 13 9.94772 13 10.5Z" fill="#FFF5D0"/>
<path d="M4 20C4 19.7239 4.22386 19.5 4.5 19.5H20.5C20.7761 19.5 21 19.7239 21 20C21 20.2761 20.7761 20.5 20.5 20.5H4.5C4.22386 20.5 4 20.2761 4 20Z" fill="#C8A584"/>
<path d="M10 16.5C10 15.3954 10.8954 14.5 12 14.5C13.1046 14.5 14 15.3954 14 16.5V20.5H10V16.5Z" fill="#C8A584"/>
<path fill-rule="evenodd" clip-rule="evenodd" d="M17.4444 15.6106C17.4783 15.5428 17.5476 15.5 17.6233 15.5H18.3761C18.4518 15.5 18.5211 15.5428 18.555 15.6106L18.8182 16.137C18.912 16.1694 19.0033 16.2074 19.0917 16.2503L19.65 16.0642C19.7219 16.0403 19.8011 16.059 19.8547 16.1125L20.387 16.6448C20.4406 16.6984 20.4593 16.7776 20.4353 16.8495L20.2493 17.4075C20.2923 17.4959 20.3303 17.5872 20.3628 17.6811L20.8894 17.9444C20.9572 17.9783 21 18.0476 21 18.1233V18.8761C21 18.9518 20.9572 19.0211 20.8894 19.055L20.363 19.3182C20.3306 19.412 20.2926 19.5033 20.2497 19.5917L20.4358 20.15C20.4597 20.2219 20.441 20.3011 20.3875 20.3547L19.8552 20.887C19.8016 20.9406 19.7224 20.9593 19.6505 20.9353L19.0925 20.7493C19.0038 20.7924 18.9123 20.8305 18.8182 20.863L18.555 21.3894C18.5211 21.4572 18.4518 21.5 18.3761 21.5H17.6233C17.5476 21.5 17.4783 21.4572 17.4444 21.3894L17.1811 20.8628C17.0872 20.8303 16.9959 20.7923 16.9075 20.7493L16.3495 20.9353C16.2776 20.9593 16.1984 20.9406 16.1448 20.887L15.6125 20.3547C15.559 20.3011 15.5403 20.2219 15.5642 20.15L15.7503 19.5917C15.7074 19.5033 15.6694 19.412 15.637 19.3182L15.1106 19.055C15.0428 19.0211 15 18.9518 15 18.8761V18.1233C15 18.0476 15.0428 17.9783 15.1106 17.9444L15.6372 17.6811C15.6697 17.5872 15.7077 17.4959 15.7507 17.4075L15.5647 16.8495C15.5407 16.7776 15.5594 16.6984 15.613 16.6448L16.1453 16.1125C16.1989 16.059 16.2781 16.0403 16.35 16.0642L16.9083 16.2503C16.9965 16.2075 17.0875 16.1696 17.1811 16.1372L17.4444 15.6106Z" fill="#858585"/>
<path d="M19 18.5C19 19.0523 18.5523 19.5 18 19.5C17.4477 19.5 17 19.0523 17 18.5C17 17.9477 17.4477 17.5 18 17.5C18.5523 17.5 19 17.9477 19 18.5Z" fill="#B5B5B5"/>
<path fill-rule="evenodd" clip-rule="evenodd" d="M19.5984 18.5004C19.5984 19.384 18.8821 20.1004 17.9984 20.1004C17.1148 20.1004 16.3984 19.384 16.3984 18.5004C16.3984 17.6167 17.1148 16.9004 17.9984 16.9004C18.8821 16.9004 19.5984 17.6167 19.5984 18.5004ZM17.9984 19.5004C18.5507 19.5004 18.9984 19.0527 18.9984 18.5004C18.9984 17.9481 18.5507 17.5004 17.9984 17.5004C17.4462 17.5004 16.9984 17.9481 16.9984 18.5004C16.9984 19.0527 17.4462 19.5004 17.9984 19.5004Z" fill="#B5B5B5"/>
</svg>
