<svg width="24" height="25" viewBox="0 0 24 25" fill="none" xmlns="http://www.w3.org/2000/svg">
<path d="M20 20.5C20 21.0523 19.5523 21.5 19 21.5L5 21.5C4.44771 21.5 4 21.0523 4 20.5L4 12.118C4 11.7393 4.214 11.393 4.55279 11.2236L11.5528 7.72361C11.8343 7.58284 12.1657 7.58284 12.4472 7.72361L19.4472 11.2236C19.786 11.393 20 11.7393 20 12.118L20 20.5Z" fill="#956F4C"/>
<path d="M10.2711 3.12747C11.0571 2.14489 12.5444 2.1236 13.3582 3.08329L19.9473 10.8532C20.4982 11.5029 20.0364 12.5 19.1846 12.5H11.8637H4.854C4.0155 12.5 3.54933 11.5301 4.07312 10.8753L10.2711 3.12747Z" fill="#E4CAB1"/>
<path d="M5 4.5H19V15.5H5V4.5Z" fill="white"/>
<path d="M8.82422 15.7812L20.0001 11.5117L20.0001 15.7484L20.0001 20.5031L8.82422 15.7812Z" fill="#C8A584"/>
<path d="M15.1758 15.7698L3.99993 11.5004L3.99993 15.7371L3.99993 20.5098L15.1758 15.7698Z" fill="#C8A584"/>
<path d="M10.4184 13.8213C11.1789 13.0801 12.386 13.0625 13.1678 13.7812L19.6754 19.7638C20.3463 20.3806 19.91 21.5 18.9987 21.5H11.8519H4.99799C4.10085 21.5 3.65756 20.41 4.30005 19.7838L10.4184 13.8213Z" fill="#E4CAB1"/>
<circle cx="12" cy="9.5" r="3" fill="#956F4C"/>
<path d="M13.0601 10.2768C12.8191 9.75741 12.7148 9.62423 12.5118 9.37841C12.389 9.22958 12.2062 9.1416 12.0132 9.1416C11.8176 9.1416 11.6335 9.23265 11.5071 9.38192C11.2923 9.63563 11.1545 9.78382 10.9513 10.2679C10.9082 10.3707 10.903 10.4856 10.9331 10.5929C11.0048 10.8491 11.2606 11.0079 11.522 10.9586L11.5814 10.9475C11.6335 10.9376 11.684 10.9207 11.7315 10.8971L11.7645 10.8807C11.9347 10.7963 12.1359 10.8033 12.2998 10.8993L12.3041 10.9018C12.3627 10.9362 12.4274 10.9591 12.4946 10.9694L12.5307 10.975C12.7906 11.0148 13.0368 10.8459 13.0934 10.5891C13.1165 10.4842 13.1053 10.3743 13.0601 10.2768Z" fill="#EEE3D9"/>
<path d="M10.2192 9.49213C10.2545 9.75464 10.4196 9.95519 10.6218 9.92727C10.9351 9.85281 11.072 9.57533 10.928 9.3272C10.7543 9.02763 10.613 8.90117 10.4441 8.8951C10.2753 8.88904 10.1839 9.22962 10.2192 9.49213Z" fill="#EEE3D9"/>
<path d="M13.7769 9.49213C13.7416 9.75464 13.5765 9.95519 13.3743 9.92727C13.061 9.85282 12.9241 9.57533 13.0681 9.3272C13.2418 9.02763 13.3831 8.90117 13.552 8.89511C13.7208 8.88904 13.8122 9.22962 13.7769 9.49213Z" fill="#EEE3D9"/>
<path d="M11.0622 8.57032C11.0488 8.859 11.1423 9.10515 11.4038 9.11765C11.8158 9.13735 11.9112 8.89242 11.8439 8.53518C11.7639 8.1105 11.6537 7.9514 11.4157 7.97484C11.1777 7.99828 11.0756 8.28164 11.0622 8.57032Z" fill="#EEE3D9"/>
<path d="M12.9847 8.57032C12.9981 8.859 12.9046 9.10515 12.6431 9.11765C12.2311 9.13735 12.1357 8.89242 12.203 8.53518C12.283 8.1105 12.3932 7.9514 12.6312 7.97484C12.8692 7.99828 12.9712 8.28164 12.9847 8.57032Z" fill="#EEE3D9"/>
</svg>
