<svg width="28" height="29" viewBox="0 0 28 29" fill="none" xmlns="http://www.w3.org/2000/svg">
<path fill-rule="evenodd" clip-rule="evenodd" d="M12.5171 6.79482C12.6075 6.61413 12.7922 6.5 12.9942 6.5H15.0016C15.2036 6.5 15.3883 6.61413 15.4786 6.79482L16.1803 8.19814C16.4307 8.28482 16.6743 8.38599 16.9102 8.50067L18.3975 8.00488C18.5892 7.941 18.8005 7.99088 18.9433 8.13373L20.3628 9.55319C20.5056 9.69604 20.5555 9.90733 20.4916 10.099L19.9962 11.5851C20.1111 11.821 20.2124 12.0647 20.2992 12.3151L21.7052 13.0181C21.8859 13.1085 22 13.2931 22 13.4952V15.5026C22 15.7046 21.8859 15.8893 21.7052 15.9796L20.2999 16.6823C20.2139 16.9306 20.1136 17.1723 20 17.4064L20.498 18.9004C20.5619 19.0921 20.512 19.3034 20.3692 19.4462L18.9497 20.8657C18.8069 21.0085 18.5956 21.0584 18.404 20.9945L16.9127 20.4974C16.6762 20.6126 16.4318 20.7141 16.1807 20.8011L15.4786 22.2052C15.3883 22.3859 15.2036 22.5 15.0016 22.5H12.9942C12.7922 22.5 12.6075 22.3859 12.5171 22.2052L11.8148 20.8004C11.5647 20.7137 11.3213 20.6126 11.0858 20.498L9.59604 20.9945C9.4044 21.0584 9.19311 21.0085 9.05026 20.8657L7.6308 19.4462C7.48795 19.3034 7.43807 19.0921 7.50195 18.9004L7.99892 17.4095C7.88447 17.174 7.78349 16.9307 7.69696 16.6807L6.29482 15.9796C6.11413 15.8893 6 15.7046 6 15.5026V13.4952C6 13.2931 6.11413 13.1085 6.29482 13.0181L7.69764 12.3167C7.78497 12.0646 7.88701 11.8193 8.00273 11.582L7.5084 10.099C7.44451 9.90733 7.49439 9.69604 7.63724 9.55319L9.0567 8.13373C9.19955 7.99088 9.41084 7.941 9.60248 8.00488L11.0883 8.50015C11.3232 8.38599 11.5658 8.28521 11.8151 8.19882L12.5171 6.79482ZM14.969 10.6182C14.6584 10.5408 14.3333 10.4997 13.9987 10.4997C11.7896 10.4997 9.9987 12.2905 9.9987 14.4997C9.9987 16.3747 11.2888 17.9483 13.0297 18.3815C11.2894 17.9479 10 16.3745 10 14.5C10 12.2909 11.7909 10.5 14 10.5C14.3342 10.5 14.6587 10.541 14.969 10.6182ZM17 14.5C17 16.1569 15.6569 17.5 14 17.5C12.3431 17.5 11 16.1569 11 14.5C11 12.8431 12.3431 11.5 14 11.5C15.6569 11.5 17 12.8431 17 14.5Z" fill="#525252"/>
</svg>
