<svg width="24" height="25" viewBox="0 0 24 25" fill="none" xmlns="http://www.w3.org/2000/svg">
<rect y="0.5" width="24" height="24" rx="12" fill="#FFF7E1"/>
<path d="M4.72042 16.1712C4.88114 15.2068 5.71552 14.5 6.6932 14.5H17.3047C18.2824 14.5 19.1168 15.2068 19.2775 16.1712L19.6108 18.1712C19.814 19.3903 18.8739 20.5 17.638 20.5H6.35987C5.12399 20.5 4.1839 19.3903 4.38708 18.1712L4.72042 16.1712Z" fill="#956F4C"/>
<path d="M7.68775 7.42943C8.16867 5.69815 9.745 4.5 11.5418 4.5H12.4611C14.258 4.5 15.8343 5.69814 16.3152 7.42942L16.593 8.42943C17.301 10.9782 15.3842 13.5 12.7389 13.5H11.264C8.61876 13.5 6.70198 10.9782 7.40998 8.42943L7.68775 7.42943Z" fill="#E4CAB1"/>
<path fill-rule="evenodd" clip-rule="evenodd" d="M12.1584 10.3766C12.1534 10.3703 12.1481 10.3642 12.1422 10.3584C12.103 10.3191 12.0515 10.2996 12 10.2998C11.9485 10.2996 11.897 10.3191 11.8578 10.3584C11.8519 10.3642 11.8466 10.3703 11.8416 10.3766C11.7721 10.4492 11.708 10.5344 11.6519 10.609L11.6519 10.609C11.6366 10.6292 11.6219 10.6487 11.6079 10.6669C11.5315 10.7662 11.4637 10.8442 11.3861 10.8985C11.314 10.949 11.2298 10.9814 11.1134 10.9795C10.9918 10.9776 10.824 10.9378 10.5903 10.8209C10.4915 10.7715 10.3713 10.8116 10.3219 10.9104C10.2725 11.0092 10.3126 11.1293 10.4114 11.1787C10.6776 11.3118 10.9057 11.3762 11.107 11.3795C11.3135 11.3828 11.4793 11.3215 11.6155 11.2262C11.7463 11.1346 11.8451 11.0146 11.925 10.9108C11.945 10.8847 11.9637 10.86 11.9814 10.8366L11.9814 10.8366L11.9814 10.8366C11.9877 10.8282 11.9939 10.82 12 10.8119C12.0061 10.82 12.0123 10.8282 12.0186 10.8366L12.0186 10.8366L12.0186 10.8366C12.0363 10.86 12.055 10.8847 12.075 10.9108C12.1549 11.0146 12.2537 11.1346 12.3845 11.2262C12.5207 11.3215 12.6865 11.3828 12.893 11.3795C13.0943 11.3762 13.3224 11.3118 13.5886 11.1787C13.6874 11.1293 13.7275 11.0092 13.6781 10.9104C13.6287 10.8116 13.5085 10.7715 13.4097 10.8209C13.176 10.9378 13.0082 10.9776 12.8866 10.9795C12.7702 10.9814 12.686 10.949 12.6139 10.8985C12.5363 10.8442 12.4685 10.7662 12.3921 10.6669C12.3781 10.6487 12.3634 10.6292 12.3481 10.609C12.292 10.5344 12.2279 10.4492 12.1584 10.3766Z" fill="#C8A584"/>
<path d="M11.0952 9.73764C11.1122 9.60188 11.2276 9.5 11.3644 9.5H12.6354C12.7722 9.5 12.8876 9.60188 12.9046 9.73764C12.9552 10.1424 12.6396 10.5 12.2316 10.5H11.7682C11.3602 10.5 11.0446 10.1424 11.0952 9.73764Z" fill="#956F4C"/>
<path d="M7.72474 5.64873C8.08458 5.23966 8.68743 5.15071 9.15008 5.43841C9.34861 5.56186 9.44897 5.79611 9.40141 6.025L8.84316 8.71151C8.62661 9.75363 7.43918 10.2624 6.53532 9.70032C5.73178 9.20065 5.56924 8.09905 6.19421 7.38859L7.72474 5.64873Z" fill="#956F4C"/>
<path d="M16.3143 5.64873C15.9545 5.23966 15.3516 5.15071 14.889 5.43841C14.6905 5.56186 14.5901 5.79611 14.6377 6.025L15.1959 8.71151C15.4124 9.75363 16.5999 10.2624 17.5037 9.70032C18.3073 9.20065 18.4698 8.09905 17.8449 7.38859L16.3143 5.64873Z" fill="#956F4C"/>
<path fill-rule="evenodd" clip-rule="evenodd" d="M16.4444 12.6106C16.4783 12.5428 16.5476 12.5 16.6233 12.5H17.3761C17.4518 12.5 17.5211 12.5428 17.555 12.6106L17.8182 13.137C17.912 13.1694 18.0033 13.2074 18.0917 13.2503L18.65 13.0642C18.7219 13.0403 18.8011 13.059 18.8547 13.1125L19.387 13.6448C19.4406 13.6984 19.4593 13.7776 19.4353 13.8495L19.2493 14.4075C19.2923 14.4959 19.3303 14.5872 19.3628 14.6811L19.8894 14.9444C19.9572 14.9783 20 15.0476 20 15.1233V15.8761C20 15.9518 19.9572 16.0211 19.8894 16.055L19.363 16.3182C19.3306 16.412 19.2926 16.5033 19.2497 16.5917L19.4358 17.15C19.4597 17.2219 19.441 17.3011 19.3875 17.3547L18.8552 17.887C18.8016 17.9406 18.7224 17.9593 18.6505 17.9353L18.0925 17.7493C18.0038 17.7924 17.9123 17.8305 17.8182 17.863L17.555 18.3894C17.5211 18.4572 17.4518 18.5 17.3761 18.5H16.6233C16.5476 18.5 16.4783 18.4572 16.4444 18.3894L16.1811 17.8628C16.0872 17.8303 15.9959 17.7923 15.9075 17.7493L15.3495 17.9353C15.2776 17.9593 15.1984 17.9406 15.1448 17.887L14.6125 17.3547C14.559 17.3011 14.5403 17.2219 14.5642 17.15L14.7503 16.5917C14.7074 16.5033 14.6694 16.412 14.637 16.3182L14.1106 16.055C14.0428 16.0211 14 15.9518 14 15.8761V15.1233C14 15.0476 14.0428 14.9783 14.1106 14.9444L14.6372 14.6811C14.6697 14.5872 14.7077 14.4959 14.7507 14.4075L14.5647 13.8495C14.5407 13.7776 14.5594 13.6984 14.613 13.6448L15.1453 13.1125C15.1989 13.059 15.2781 13.0403 15.35 13.0642L15.9083 13.2503C15.9965 13.2075 16.0875 13.1696 16.1811 13.1372L16.4444 12.6106Z" fill="#858585"/>
<path d="M18 15.5C18 16.0523 17.5523 16.5 17 16.5C16.4477 16.5 16 16.0523 16 15.5C16 14.9477 16.4477 14.5 17 14.5C17.5523 14.5 18 14.9477 18 15.5Z" fill="#B5B5B5"/>
<path fill-rule="evenodd" clip-rule="evenodd" d="M18.5984 15.5004C18.5984 16.384 17.8821 17.1004 16.9984 17.1004C16.1148 17.1004 15.3984 16.384 15.3984 15.5004C15.3984 14.6167 16.1148 13.9004 16.9984 13.9004C17.8821 13.9004 18.5984 14.6167 18.5984 15.5004ZM16.9984 16.5004C17.5507 16.5004 17.9984 16.0527 17.9984 15.5004C17.9984 14.9481 17.5507 14.5004 16.9984 14.5004C16.4462 14.5004 15.9984 14.9481 15.9984 15.5004C15.9984 16.0527 16.4462 16.5004 16.9984 16.5004Z" fill="#E9E9E9"/>
<path fill-rule="evenodd" clip-rule="evenodd" d="M9.69231 9.42308C10.372 9.42308 10.9231 8.87204 10.9231 8.19231C10.9231 7.51257 10.372 6.96154 9.69231 6.96154C9.01257 6.96154 8.46154 7.51257 8.46154 8.19231C8.46154 8.87204 9.01257 9.42308 9.69231 9.42308ZM11.3777 8.34615C11.3 9.20869 10.5751 9.88462 9.69231 9.88462C8.75767 9.88462 8 9.12694 8 8.19231C8 7.25767 8.75767 6.5 9.69231 6.5C10.5751 6.5 11.3 7.17592 11.3777 8.03846H12.6223C12.7 7.17592 13.4249 6.5 14.3077 6.5C15.2423 6.5 16 7.25767 16 8.19231C16 9.12694 15.2423 9.88462 14.3077 9.88462C13.4249 9.88462 12.7 9.20869 12.6223 8.34615H11.3777ZM14.3077 9.42308C14.9874 9.42308 15.5385 8.87204 15.5385 8.19231C15.5385 7.51257 14.9874 6.96154 14.3077 6.96154C13.628 6.96154 13.0769 7.51257 13.0769 8.19231C13.0769 8.87204 13.628 9.42308 14.3077 9.42308Z" fill="#C8A584"/>
</svg>
