<svg width="24" height="25" viewBox="0 0 24 25" fill="none" xmlns="http://www.w3.org/2000/svg">
<path fill-rule="evenodd" clip-rule="evenodd" d="M6.03296 8.5C5.77913 8.5 5.5895 8.73336 5.64142 8.98182L7.88214 19.7046C7.97898 20.168 8.38755 20.5 8.86099 20.5H15.1546C15.628 20.5 16.0366 20.168 16.1334 19.7046L18.3741 8.98182C18.4261 8.73336 18.2364 8.5 17.9826 8.5H6.03296ZM9.42096 10.5C9.18285 10.5 8.98983 10.693 8.98983 10.9311V18.0689C8.98983 18.307 9.18285 18.5 9.42096 18.5C9.65907 18.5 9.8521 18.307 9.8521 18.0689V10.9311C9.8521 10.693 9.65907 10.5 9.42096 10.5ZM11.5766 10.9311C11.5766 10.693 11.7697 10.5 12.0078 10.5C12.2459 10.5 12.4389 10.693 12.4389 10.9311V18.0689C12.4389 18.307 12.2459 18.5 12.0078 18.5C11.7697 18.5 11.5766 18.307 11.5766 18.0689V10.9311ZM14.5946 10.5C14.3565 10.5 14.1635 10.693 14.1635 10.9311V18.0689C14.1635 18.307 14.3565 18.5 14.5946 18.5C14.8327 18.5 15.0257 18.307 15.0257 18.0689V10.9311C15.0257 10.693 14.8327 10.5 14.5946 10.5Z" fill="#292929"/>
<path fill-rule="evenodd" clip-rule="evenodd" d="M13.5922 4.5H10.3922C9.61899 4.5 8.99219 5.1268 8.99219 5.9V6.5H5.50874C4.94355 6.5 4.80056 7.28415 5.32937 7.48365C5.35804 7.49446 5.38842 7.5 5.41906 7.5H18.5804C18.611 7.5 18.6414 7.49446 18.67 7.48365C19.1989 7.28415 19.0559 6.5 18.4907 6.5H14.9922V5.9C14.9922 5.1268 14.3654 4.5 13.5922 4.5ZM13.9922 6.5V5.9C13.9922 5.67909 13.8131 5.5 13.5922 5.5H10.3922C10.1713 5.5 9.99219 5.67909 9.99219 5.9V6.5H13.9922Z" fill="#292929"/>
</svg>
