<svg width="24" height="24" viewBox="0 0 24 24" fill="none" xmlns="http://www.w3.org/2000/svg">
<path d="M10.3525 12.7549C10.8567 12.8062 11.25 13.2323 11.25 13.75V20L11.2451 20.1025C11.1972 20.573 10.823 20.9472 10.3525 20.9951L10.25 21H4L3.89746 20.9951C3.42704 20.9472 3.05278 20.573 3.00488 20.1025L3 20V13.75C3.00002 13.2323 3.39334 12.8062 3.89746 12.7549L4 12.75H10.25L10.3525 12.7549ZM20.1025 12.7549C20.6067 12.8062 21 13.2323 21 13.75V20L20.9951 20.1025C20.9472 20.573 20.573 20.9472 20.1025 20.9951L20 21H13.75L13.6475 20.9951C13.177 20.9472 12.8028 20.573 12.7549 20.1025L12.75 20V13.75C12.75 13.2323 13.1433 12.8062 13.6475 12.7549L13.75 12.75H20L20.1025 12.7549ZM5 19H9.25V14.75H5V19ZM14.75 19H19V14.75H14.75V19ZM11.25 9.25C11.25 10.3546 10.3546 11.25 9.25 11.25H3V5C3 3.89543 3.89543 3 5 3H11.25V9.25ZM20.1025 3.00488C20.6067 3.05622 21 3.48232 21 4V10.25L20.9951 10.3525C20.9472 10.823 20.573 11.1972 20.1025 11.2451L20 11.25H13.75L13.6475 11.2451C13.177 11.1972 12.8028 10.823 12.7549 10.3525L12.75 10.25V4C12.75 3.48232 13.1433 3.05621 13.6475 3.00488L13.75 3H20L20.1025 3.00488ZM14.75 9.25H19V5H14.75V9.25Z" fill="black"/>
</svg>
