<svg width="25" height="24" viewBox="0 0 25 24" fill="none" xmlns="http://www.w3.org/2000/svg">
<path d="M11.5 22.23V20H6.116C5.65533 20 5.271 19.846 4.963 19.538C4.655 19.23 4.50067 18.8454 4.5 18.384V5.61602C4.5 5.15535 4.65433 4.77102 4.963 4.46302C5.27167 4.15502 5.656 4.00069 6.116 4.00002H11.5V1.77002H12.5V22.23H11.5ZM6.116 19H11.5V16H8V15H11.5V12.5H8V11.5H11.5V9.00002H8V8.00002H11.5V5.00002H6.116C5.962 5.00002 5.82067 5.06402 5.692 5.19202C5.56333 5.32002 5.49933 5.46135 5.5 5.61602V18.385C5.5 18.5384 5.564 18.6794 5.692 18.808C5.82 18.9367 5.961 19.0007 6.115 19M14.692 5.00002V4.00002H19.077C19.537 4.00002 19.9213 4.15435 20.23 4.46302C20.5387 4.77169 20.6927 5.15602 20.692 5.61602V18.385C20.692 18.845 20.538 19.2294 20.23 19.538C19.922 19.8467 19.5377 20.0007 19.077 20H14.692V19H19.077C19.2303 19 19.3713 18.936 19.5 18.808C19.6287 18.68 19.6927 18.5387 19.692 18.384V5.61602C19.692 5.46202 19.628 5.32069 19.5 5.19202C19.372 5.06335 19.231 4.99935 19.077 5.00002H14.692ZM14.692 12.5V11.5H18.192V12.5H14.692ZM14.692 9.00002V8.00002H18.192V9.00002H14.692Z" fill="black"/>
</svg>
