<svg width="24" height="24" viewBox="0 0 24 24" fill="none" xmlns="http://www.w3.org/2000/svg">
<path fill-rule="evenodd" clip-rule="evenodd" d="M16.1001 2.14253C16.5505 3.26178 17.3188 4.19246 18.2911 4.79653C18.4363 4.88586 18.4363 5.11414 18.2911 5.20347C17.3184 5.80763 16.5497 6.7387 16.0992 7.85846C16.082 7.90061 16.054 7.9364 16.0185 7.96152C15.9831 7.98664 15.9418 8 15.8996 8C15.8573 8 15.816 7.98664 15.7806 7.96152C15.7452 7.9364 15.7171 7.90061 15.6999 7.85846C15.2492 6.73907 14.4806 5.80837 13.508 5.20446C13.4752 5.18398 13.4479 5.15438 13.429 5.11864C13.41 5.08291 13.4 5.04232 13.4 5.00099C13.4 4.95967 13.41 4.91908 13.429 4.88334C13.4479 4.84761 13.4752 4.818 13.508 4.79753C14.4809 4.1931 15.2496 3.26167 15.6999 2.14154C15.7171 2.09939 15.7452 2.0636 15.7806 2.03848C15.816 2.01336 15.8573 2 15.8996 2C15.9418 2 15.9831 2.01336 16.0185 2.03848C16.054 2.0636 16.082 2.09939 16.0992 2.14154L16.1001 2.14253ZM7.61851 5.81574C8.70419 5.11069 9.98521 4.76744 11.278 4.83519L11.3826 2.83793C9.6681 2.74808 7.96913 3.20331 6.52923 4.1384C5.08933 5.07348 3.98242 6.4404 3.36714 8.04325C2.75186 9.6461 2.65981 11.4026 3.10417 13.061C3.54853 14.7194 4.5065 16.1945 5.84077 17.275C7.17504 18.3554 8.81711 18.9858 10.5316 19.0756C12.2462 19.1655 13.9451 18.7102 15.385 17.7752C15.4825 17.7119 15.5784 17.6466 15.6727 17.5795L19.5823 21.4107L20.9821 19.9823L17.1487 16.2256C17.7411 15.5295 18.2155 14.7342 18.5471 13.8703C19.1624 12.2675 19.2545 10.511 18.8101 8.85258L16.8783 9.37022C17.2133 10.6206 17.1439 11.945 16.68 13.1536C16.2161 14.3621 15.3814 15.3928 14.2958 16.0978C13.2101 16.8029 11.9291 17.1461 10.6363 17.0784C9.34357 17.0106 8.10545 16.5353 7.09941 15.7207C6.09338 14.906 5.37107 13.7938 5.03602 12.5433C4.70098 11.2929 4.77038 9.96853 5.2343 8.75999C5.69822 7.55144 6.53283 6.52079 7.61851 5.81574ZM8.9359 7.5718C7.02273 8.67637 6.36723 11.1227 7.4718 13.0359C8.57637 14.9491 11.0227 15.6046 12.9359 14.5C14.8491 13.3954 15.5046 10.9491 14.4 9.0359C13.2954 7.12273 10.8491 6.46723 8.9359 7.5718Z" fill="black"/>
</svg>
