<svg width="21" height="20" viewBox="0 0 21 20" fill="none" xmlns="http://www.w3.org/2000/svg">
<path fill-rule="evenodd" clip-rule="evenodd" d="M14.851 0.142534C15.3015 1.26178 16.0697 2.19246 17.042 2.79653C17.1872 2.88586 17.1872 3.11414 17.042 3.20347C16.0693 3.80763 15.3006 4.7387 14.8501 5.85846C14.8329 5.90061 14.8049 5.9364 14.7694 5.96152C14.734 5.98664 14.6927 6 14.6505 6C14.6082 6 14.5669 5.98664 14.5315 5.96152C14.4961 5.9364 14.468 5.90061 14.4508 5.85846C14.0002 4.73907 13.2315 3.80837 12.259 3.20446C12.2261 3.18398 12.1988 3.15438 12.1799 3.11864C12.1609 3.08291 12.1509 3.04232 12.1509 3.00099C12.1509 2.95967 12.1609 2.91908 12.1799 2.88334C12.1988 2.84761 12.2261 2.818 12.259 2.79753C13.2318 2.1931 14.0005 1.26167 14.4508 0.141541C14.468 0.0993902 14.4961 0.0635966 14.5315 0.0384806C14.5669 0.0133646 14.6082 0 14.6505 0C14.6927 0 14.734 0.0133646 14.7694 0.0384806C14.8049 0.0635966 14.8329 0.0993902 14.8501 0.141541L14.851 0.142534ZM2.11816 6.04349C1.50296 7.64626 1.41074 9.40258 1.85506 11.0609C2.29939 12.7191 3.25748 14.194 4.5916 15.2745C5.92587 16.355 7.56855 16.9859 9.28308 17.0757C10.9974 17.1655 12.6965 16.7103 14.1363 15.7753C14.2337 15.7121 14.3296 15.6468 14.4239 15.5797L18.3329 19.4111L19.0331 18.6963L19.7333 17.9824L15.8996 14.2256C16.4918 13.5293 16.9661 12.7338 17.2977 11.8699C17.9129 10.2671 18.0051 8.51084 17.5608 6.85253L15.6289 7.37017C15.964 8.62059 15.8945 9.94541 15.4306 11.154C14.9667 12.3623 14.1323 13.3928 13.0468 14.0978C11.9612 14.8028 10.6796 15.1462 9.38688 15.0785C8.09436 15.0107 6.85647 14.5354 5.85057 13.7209C4.84453 12.9062 4.12196 11.7937 3.78691 10.5432C3.45191 9.29294 3.52169 7.96884 3.9855 6.7604C4.44939 5.55194 5.28344 4.52067 6.36901 3.81562C7.45469 3.11057 8.73621 2.76719 10.029 2.83494L10.0809 1.83631L10.1337 0.837424C8.41936 0.747579 6.72028 1.20297 5.28049 2.13784C3.84059 3.07292 2.73344 4.44064 2.11816 6.04349ZM7.68681 5.5718C5.77364 6.67637 5.11814 9.12273 6.22271 11.0359C7.32728 12.9491 9.77364 13.6046 11.6868 12.5C13.6 11.3954 14.2555 8.94907 13.1509 7.0359C12.0463 5.12273 9.59998 4.46723 7.68681 5.5718Z" fill="#FF6E0C"/>
</svg>
