<svg width="20" height="20" viewBox="0 0 20 20" fill="none" xmlns="http://www.w3.org/2000/svg">
<path fill-rule="evenodd" clip-rule="evenodd" d="M14.1002 0.142534C14.5506 1.26178 15.3189 2.19246 16.2911 2.79653C16.4363 2.88586 16.4363 3.11414 16.2911 3.20347C15.3184 3.80763 14.5497 4.7387 14.0992 5.85846C14.082 5.90061 14.054 5.9364 14.0186 5.96152C13.9831 5.98664 13.9418 6 13.8996 6C13.8574 6 13.816 5.98664 13.7806 5.96152C13.7452 5.9364 13.7171 5.90061 13.6999 5.85846C13.2493 4.73907 12.4806 3.80837 11.5081 3.20446C11.4752 3.18398 11.448 3.15438 11.429 3.11864C11.41 3.08291 11.4 3.04232 11.4 3.00099C11.4 2.95967 11.41 2.91908 11.429 2.88334C11.448 2.84761 11.4752 2.818 11.5081 2.79753C12.4809 2.1931 13.2496 1.26167 13.6999 0.141541C13.7171 0.0993902 13.7452 0.0635966 13.7806 0.0384806C13.816 0.0133646 13.8574 0 13.8996 0C13.9418 0 13.9831 0.0133646 14.0186 0.0384806C14.054 0.0635966 14.082 0.0993902 14.0992 0.141541L14.1002 0.142534ZM1.36727 6.04349C0.75207 7.64626 0.659853 9.40258 1.10417 11.0609C1.5485 12.7191 2.50659 14.194 3.84071 15.2745C5.17498 16.355 6.81766 16.9859 8.5322 17.0757C10.2465 17.1655 11.9457 16.7103 13.3854 15.7753C13.4828 15.7121 13.5787 15.6468 13.673 15.5797L17.582 19.4111L18.2822 18.6963L18.9824 17.9824L15.1487 14.2256C15.7409 13.5293 16.2152 12.7338 16.5468 11.8699C17.162 10.2671 17.2542 8.51084 16.8099 6.85253L14.878 7.37017C15.2131 8.62059 15.1436 9.94541 14.6797 11.154C14.2158 12.3623 13.3814 13.3928 12.2959 14.0978C11.2103 14.8028 9.92874 15.1462 8.63599 15.0785C7.34348 15.0107 6.10558 14.5354 5.09968 13.7209C4.09364 12.9062 3.37107 11.7937 3.03602 10.5432C2.70103 9.29294 2.7708 7.96884 3.23462 6.7604C3.6985 5.55194 4.53255 4.52067 5.61812 3.81562C6.7038 3.11057 7.98532 2.76719 9.27807 2.83494L9.32997 1.83631L9.38281 0.837424C7.66848 0.747579 5.96939 1.20297 4.5296 2.13784C3.0897 3.07292 1.98255 4.44064 1.36727 6.04349ZM6.93592 5.5718C5.02275 6.67637 4.36725 9.12273 5.47182 11.0359C6.57639 12.9491 9.02275 13.6046 10.9359 12.5C12.8491 11.3954 13.5046 8.94907 12.4 7.0359C11.2955 5.12273 8.84909 4.46723 6.93592 5.5718Z" fill="currentColor"/>
</svg>
