<svg width="25" height="24" viewBox="0 0 25 24" fill="none" xmlns="http://www.w3.org/2000/svg">
<path d="M8.654 15.846L14.462 13.962L16.346 8.154L10.539 10.039L8.654 15.846ZM12.496 13.116C12.1847 13.116 11.9213 13.007 11.706 12.789C11.492 12.571 11.385 12.3067 11.385 11.996C11.385 11.6847 11.4937 11.4213 11.711 11.206C11.929 10.992 12.1933 10.885 12.504 10.885C12.8153 10.885 13.0787 10.9937 13.294 11.211C13.5087 11.429 13.616 11.6933 13.616 12.004C13.616 12.3153 13.507 12.5787 13.289 12.794C13.071 13.0087 12.8067 13.116 12.496 13.116ZM12.503 21C11.2583 21 10.0883 20.764 8.993 20.292C7.89767 19.8193 6.94467 19.178 6.134 18.368C5.32333 17.558 4.68167 16.606 4.209 15.512C3.73633 14.418 3.5 13.2483 3.5 12.003C3.5 10.7577 3.73633 9.58767 4.209 8.493C4.681 7.39767 5.32133 6.44467 6.13 5.634C6.93867 4.82333 7.891 4.18167 8.987 3.709C10.083 3.23633 11.253 3 12.497 3C13.741 3 14.911 3.23633 16.007 3.709C17.1023 4.181 18.0553 4.82167 18.866 5.631C19.6767 6.44033 20.3183 7.39267 20.791 8.488C21.2637 9.58333 21.5 10.753 21.5 11.997C21.5 13.241 21.264 14.411 20.792 15.507C20.32 16.603 19.6787 17.556 18.868 18.366C18.0573 19.176 17.1053 19.8177 16.012 20.291C14.9187 20.7643 13.749 21.0007 12.503 21ZM12.5 20C14.7293 20 16.62 19.224 18.172 17.672C19.724 16.12 20.5 14.2293 20.5 12C20.5 9.77067 19.724 7.88 18.172 6.328C16.62 4.776 14.7293 4 12.5 4C10.2707 4 8.38 4.776 6.828 6.328C5.276 7.88 4.5 9.77067 4.5 12C4.5 14.2293 5.276 16.12 6.828 17.672C8.38 19.224 10.2707 20 12.5 20Z" fill="black"/>
</svg>
