<svg width="24" height="24" viewBox="0 0 24 24" fill="none" xmlns="http://www.w3.org/2000/svg">
<path fill-rule="evenodd" clip-rule="evenodd" d="M19 5H15V12L12 10.1333L9 12V5H5L5 19H19V5ZM5 3C3.89543 3 3 3.89543 3 5V19C3 20.1046 3.89543 21 5 21H19C20.1046 21 21 20.1046 21 19V5C21 3.89543 20.1046 3 19 3H5ZM7.9 15.5996C7.67909 15.5996 7.5 15.7787 7.5 15.9996V16.9996C7.5 17.2205 7.67909 17.3996 7.9 17.3996H16.1C16.3209 17.3996 16.5 17.2205 16.5 16.9996V15.9996C16.5 15.7787 16.3209 15.5996 16.1 15.5996H7.9Z" fill="black"/>
</svg>
