<svg width="20" height="20" viewBox="0 0 20 20" fill="none" xmlns="http://www.w3.org/2000/svg">
<path fill-rule="evenodd" clip-rule="evenodd" d="M17 3H13V10L10 8.13333L7 10V3H3V17H17V3ZM17 19H3L2.7959 18.9893C1.85435 18.8938 1.1062 18.1457 1.01074 17.2041L1 17V3C1 1.96435 1.78722 1.113 2.7959 1.01074L3 1H17L17.2041 1.01074C18.2128 1.113 19 1.96435 19 3V17L18.9893 17.2041C18.8938 18.1457 18.1457 18.8938 17.2041 18.9893L17 19ZM5.9 13.5996C5.67909 13.5996 5.5 13.7787 5.5 13.9996V14.9996C5.5 15.2205 5.67909 15.3996 5.9 15.3996H14.1C14.3209 15.3996 14.5 15.2205 14.5 14.9996V13.9996C14.5 13.7787 14.3209 13.5996 14.1 13.5996H5.9Z" fill="currentColor"/>
</svg>
