<svg width="17" height="16" viewBox="0 0 17 16" fill="none" xmlns="http://www.w3.org/2000/svg">
<path fill-rule="evenodd" clip-rule="evenodd" d="M3.6 11.1995C3.64657 11.1374 3.70697 11.087 3.77639 11.0523C3.84582 11.0176 3.92238 10.9995 4 10.9995H6.5C6.63261 10.9995 6.75979 11.0522 6.85355 11.146C6.94732 11.2397 7 11.3669 7 11.4995C7 11.6321 6.94732 11.7593 6.85355 11.8531C6.75979 11.9468 6.63261 11.9995 6.5 11.9995H4.25L2 14.9995H15L12.75 11.9995H10.5C10.3674 11.9995 10.2402 11.9468 10.1464 11.8531C10.0527 11.7593 10 11.6321 10 11.4995C10 11.3669 10.0527 11.2397 10.1464 11.146C10.2402 11.0522 10.3674 10.9995 10.5 10.9995H13C13.0776 10.9995 13.1542 11.0176 13.2236 11.0523C13.293 11.087 13.3534 11.1374 13.4 11.1995L16.4 15.1995C16.4557 15.2738 16.4896 15.3621 16.498 15.4546C16.5063 15.5471 16.4887 15.6401 16.4472 15.7231C16.4057 15.8062 16.3419 15.876 16.2629 15.9248C16.1839 15.9737 16.0929 15.9995 16 15.9995H1C0.907144 15.9995 0.816123 15.9737 0.737135 15.9248C0.658147 15.876 0.594313 15.8062 0.552787 15.7231C0.51126 15.6401 0.493682 15.5471 0.502021 15.4546C0.51036 15.3621 0.544287 15.2738 0.6 15.1995L3.6 11.1995Z" fill="black"/>
<path fill-rule="evenodd" clip-rule="evenodd" d="M8.5 0.999629C8.10603 0.999629 7.71593 1.07723 7.35195 1.22799C6.98797 1.37875 6.65726 1.59973 6.37868 1.87831C6.1001 2.15688 5.87913 2.4876 5.72836 2.85158C5.5776 3.21556 5.5 3.60566 5.5 3.99963C5.5 4.39359 5.5776 4.7837 5.72836 5.14768C5.87913 5.51166 6.1001 5.84237 6.37868 6.12095C6.65726 6.39953 6.98797 6.6205 7.35195 6.77127C7.71593 6.92203 8.10603 6.99963 8.5 6.99963C9.29565 6.99963 10.0587 6.68356 10.6213 6.12095C11.1839 5.55834 11.5 4.79528 11.5 3.99963C11.5 3.20398 11.1839 2.44092 10.6213 1.87831C10.0587 1.3157 9.29565 0.999629 8.5 0.999629ZM4.5 3.99963C4.50007 3.22986 4.72226 2.47645 5.13989 1.82982C5.55753 1.18319 6.15288 0.670801 6.8545 0.354136C7.55613 0.0374708 8.33422 -0.0700184 9.09542 0.044566C9.85662 0.15915 10.5686 0.490941 11.1459 1.00013C11.7232 1.50931 12.1413 2.17426 12.3501 2.91518C12.5589 3.65611 12.5494 4.44153 12.3228 5.17722C12.0963 5.9129 11.6623 6.56759 11.0729 7.06272C10.4835 7.55786 9.76374 7.87241 9 7.96863V13.4996C9 13.6322 8.94732 13.7594 8.85355 13.8532C8.75979 13.947 8.63261 13.9996 8.5 13.9996C8.36739 13.9996 8.24022 13.947 8.14645 13.8532C8.05268 13.7594 8 13.6322 8 13.4996V7.96963C7.03297 7.84779 6.14369 7.37707 5.49922 6.64586C4.85474 5.91466 4.49942 4.97431 4.5 3.99963Z" fill="black"/>
</svg>
